<svg width="111" height="45" viewBox="0 0 111 45" fill="none" xmlns="http://www.w3.org/2000/svg">
<path d="M44.204 11.0128V15.8008C44.204 16.1928 44.288 16.5048 44.456 16.7368C44.632 16.9608 44.912 17.0728 45.296 17.0728C45.68 17.0728 45.964 16.9608 46.148 16.7368C46.332 16.5048 46.424 16.1928 46.424 15.8008V11.0128H49.076V15.8008C49.076 16.6088 48.908 17.3008 48.572 17.8768C48.236 18.4448 47.776 18.8728 47.192 19.1608C46.608 19.4488 45.956 19.5928 45.236 19.5928C44.516 19.5928 43.876 19.4488 43.316 19.1608C42.764 18.8728 42.332 18.4448 42.02 17.8768C41.708 17.3088 41.552 16.6168 41.552 15.8008V11.0128H44.204ZM55.637 19.5088L54.077 17.3008L52.781 19.5088H49.745L52.541 15.1288L49.625 11.0128H52.781L54.281 13.1368L55.529 11.0128H58.565L55.817 15.3088L58.793 19.5088H55.637ZM62.0531 16.8088V19.5088H59.3891V11.0128H63.1091C64.1491 11.0128 64.9451 11.2768 65.4971 11.8048C66.0571 12.3328 66.3371 13.0408 66.3371 13.9288C66.3371 14.4648 66.2131 14.9528 65.9651 15.3928C65.7171 15.8248 65.3491 16.1688 64.8611 16.4248C64.3811 16.6808 63.7971 16.8088 63.1091 16.8088H62.0531ZM62.8091 14.7088C63.3611 14.7088 63.6371 14.4488 63.6371 13.9288C63.6371 13.4088 63.3611 13.1488 62.8091 13.1488H62.0531V14.7088H62.8091ZM72.63 18.2248H69.798L69.378 19.5088H66.582L69.69 11.0128H72.762L75.858 19.5088H73.05L72.63 18.2248ZM71.982 16.2208L71.214 13.8568L70.446 16.2208H71.982Z" fill="#4CABCC"/>
<path d="M48.164 29.0008C48.164 29.4888 48.036 29.9288 47.78 30.3208C47.532 30.7128 47.168 31.0248 46.688 31.2568C46.208 31.4808 45.636 31.5928 44.972 31.5928C43.956 31.5928 43.116 31.3568 42.452 30.8848C41.796 30.4048 41.44 29.7048 41.384 28.7848H44.216C44.256 29.2728 44.472 29.5168 44.864 29.5168C45 29.5168 45.108 29.4808 45.188 29.4088C45.276 29.3368 45.32 29.2328 45.32 29.0968C45.32 28.8968 45.216 28.7408 45.008 28.6288C44.808 28.5088 44.48 28.3728 44.024 28.2208C43.488 28.0448 43.04 27.8648 42.68 27.6808C42.328 27.4968 42.02 27.2248 41.756 26.8648C41.492 26.5048 41.36 26.0368 41.36 25.4608C41.36 24.9088 41.5 24.4408 41.78 24.0568C42.068 23.6648 42.456 23.3688 42.944 23.1688C43.44 22.9688 43.996 22.8688 44.612 22.8688C45.628 22.8688 46.436 23.1048 47.036 23.5768C47.636 24.0488 47.964 24.7288 48.02 25.6168H45.152C45.112 25.1688 44.928 24.9448 44.6 24.9448C44.488 24.9448 44.396 24.9808 44.324 25.0528C44.252 25.1168 44.216 25.2168 44.216 25.3528C44.216 25.5368 44.316 25.6888 44.516 25.8088C44.724 25.9208 45.044 26.0528 45.476 26.2048C46.02 26.3968 46.468 26.5888 46.82 26.7808C47.18 26.9648 47.492 27.2408 47.756 27.6088C48.028 27.9688 48.164 28.4328 48.164 29.0008ZM51.764 25.1248V26.1808H54.404V28.1848H51.764V29.3848H54.764V31.5088H49.1V23.0128H54.764V25.1248H51.764ZM61.216 30.2248H58.384L57.964 31.5088H55.168L58.276 23.0128H61.348L64.444 31.5088H61.636L61.216 30.2248ZM60.568 28.2208L59.8 25.8568L59.032 28.2208H60.568ZM71.7212 23.0128V25.1248H69.4652V31.5088H66.8012V25.1248H64.5692V23.0128H71.7212ZM79.1158 23.0128V25.1248H76.8598V31.5088H74.1958V25.1248H71.9638V23.0128H79.1158ZM82.5023 29.4928H85.0703V31.5088H79.8383V23.0128H82.5023V29.4928ZM88.5726 25.1248V26.1808H91.2126V28.1848H88.5726V29.3848H91.5726V31.5088H85.9086V23.0128H91.5726V25.1248H88.5726Z" fill="black"/>
<path d="M18 27.0321L25.2505 26.4261V33.5331L18 34.8998V27.0321Z" fill="#4CABCC"/>
<path d="M25.613 26.3168L31.4134 25.7155V32.221L25.613 33.4784V26.3168Z" fill="#4CABCC"/>
<path d="M31.6551 25.6607L36.8512 25.1687V31.0183L31.6551 32.1116V25.6607Z" fill="#4CABCC"/>
<path d="M31.4134 18.4993L36.8512 18.6086V24.8408L31.5946 25.4422L31.4134 18.4993Z" fill="#4CABCC"/>
<path d="M27.1262 15.5471L30.9301 21.4296L25.8973 25.9342L21.6253 19.9987L27.1262 15.5471Z" fill="#4CABCC"/>
<path d="M30.2654 8.16675L35.522 12.0482L32.8635 18.4991L27.4256 15.3284L30.2654 8.16675Z" fill="#4CABCC"/>
</svg>
