<svg width="430" height="265" viewBox="0 0 430 265" fill="none" xmlns="http://www.w3.org/2000/svg">
<circle cx="345.034" cy="65.5163" r="65.0172" fill="#DDF1FA"/>
<path d="M339.467 33.9145H63.3223C57.7994 33.9145 53.3223 38.3916 53.3223 43.9145V213.626C53.3223 219.149 57.7994 223.626 63.3223 223.626H339.467C344.99 223.626 349.467 219.149 349.467 213.626V43.9145C349.467 38.3916 344.99 33.9145 339.467 33.9145Z" fill="white"/>
<path d="M150.753 70.4326H96.144V129.693H150.753V70.4326Z" fill="#E6E6E6"/>
<path d="M228.699 70.4326H174.09V129.693H228.699V70.4326Z" fill="#E6E6E6"/>
<path d="M306.644 70.4326H252.035V129.693H306.644V70.4326Z" fill="#E6E6E6"/>
<path d="M150.753 140.42H96.144V199.681H150.753V140.42Z" fill="#E6E6E6"/>
<path d="M228.699 140.42H174.09V199.681H228.699V140.42Z" fill="#E6E6E6"/>
<path d="M306.644 140.42H252.035V199.681H306.644V140.42Z" fill="#E6E6E6"/>
<path d="M117.356 106.266C122.454 106.266 126.587 102.132 126.587 97.0324C126.587 91.933 122.454 87.7991 117.356 87.7991C112.258 87.7991 108.125 91.933 108.125 97.0324C108.125 102.132 112.258 106.266 117.356 106.266Z" fill="#FFB9B9"/>
<path d="M113.75 104.102C113.75 104.102 114.904 109.584 114.904 110.161C114.904 110.738 120.385 113.335 120.385 113.335L125.289 112.469L127.02 107.276C127.02 107.276 124.135 102.948 124.135 101.216L113.75 104.102Z" fill="#FFB9B9"/>
<path d="M109.351 89.5934C109.351 89.5934 112.282 83.2417 117.899 84.7075C123.516 86.1732 126.691 88.3719 126.936 90.5706C127.18 92.7692 126.814 96.0672 126.814 96.0672C126.814 96.0672 126.203 91.5478 122.295 92.5249C118.387 93.5021 112.282 92.7692 112.282 92.7692L111.305 101.564C111.305 101.564 110.206 99.976 108.984 100.953C107.763 101.93 105.443 91.5478 109.351 89.5934Z" fill="#2F2E41"/>
<path d="M146.635 127.474L144.329 117.085C143.172 113.622 140.29 110.739 140.29 110.739L126.064 105.734H126.061C126.033 106.992 125.609 108.209 124.849 109.212C124.09 110.215 123.033 110.952 121.83 111.319C117.501 112.759 114.521 107.907 114.521 107.907L102.496 117.085C102.496 117.085 98.7471 120.261 99.0371 126.321L98.6383 129.693H147.744L146.635 127.474Z" fill="#56BAE4"/>
<path d="M195.093 110.867C202.013 110.867 207.622 104.911 207.622 97.5633C207.622 90.2159 202.013 84.2596 195.093 84.2596C188.173 84.2596 182.564 90.2159 182.564 97.5633C182.564 104.911 188.173 110.867 195.093 110.867Z" fill="#2F2E41"/>
<mask id="path-14-inside-1" fill="white">
<path fill-rule="evenodd" clip-rule="evenodd" d="M178.428 264.652C218.835 264.652 251.591 232.06 251.591 191.857C251.591 151.653 218.835 119.061 178.428 119.061C138.021 119.061 105.265 151.653 105.265 191.857C105.265 232.06 138.021 264.652 178.428 264.652ZM178.428 265.001C219.028 265.001 251.942 232.253 251.942 191.857C251.942 151.46 219.028 118.712 178.428 118.712C137.827 118.712 104.914 151.46 104.914 191.857C104.914 232.253 137.827 265.001 178.428 265.001Z"/>
</mask>
<path fill-rule="evenodd" clip-rule="evenodd" d="M178.428 264.652C218.835 264.652 251.591 232.06 251.591 191.857C251.591 151.653 218.835 119.061 178.428 119.061C138.021 119.061 105.265 151.653 105.265 191.857C105.265 232.06 138.021 264.652 178.428 264.652ZM178.428 265.001C219.028 265.001 251.942 232.253 251.942 191.857C251.942 151.46 219.028 118.712 178.428 118.712C137.827 118.712 104.914 151.46 104.914 191.857C104.914 232.253 137.827 265.001 178.428 265.001Z" fill="#333333"/>
<path d="M250.591 191.857C250.591 231.503 218.287 263.652 178.428 263.652V265.652C219.382 265.652 252.591 232.617 252.591 191.857H250.591ZM178.428 120.061C218.287 120.061 250.591 152.21 250.591 191.857H252.591C252.591 151.096 219.382 118.061 178.428 118.061V120.061ZM106.265 191.857C106.265 152.21 138.569 120.061 178.428 120.061V118.061C137.474 118.061 104.265 151.096 104.265 191.857H106.265ZM178.428 263.652C138.569 263.652 106.265 231.503 106.265 191.857H104.265C104.265 232.617 137.474 265.652 178.428 265.652V263.652ZM250.942 191.857C250.942 231.696 218.481 264.001 178.428 264.001V266.001C219.576 266.001 252.942 232.81 252.942 191.857H250.942ZM178.428 119.712C218.481 119.712 250.942 152.017 250.942 191.857H252.942C252.942 150.903 219.576 117.712 178.428 117.712V119.712ZM105.914 191.857C105.914 152.017 138.375 119.712 178.428 119.712V117.712C137.28 117.712 103.914 150.903 103.914 191.857H105.914ZM178.428 264.001C138.375 264.001 105.914 231.696 105.914 191.857H103.914C103.914 232.81 137.28 266.001 178.428 266.001V264.001Z" fill="black" mask="url(#path-14-inside-1)"/>
<path d="M206.21 117.696C209.85 117.696 212.801 114.744 212.801 111.103C212.801 107.461 209.85 104.51 206.21 104.51C202.57 104.51 199.619 107.461 199.619 111.103C199.619 114.744 202.57 117.696 206.21 117.696Z" fill="#2F2E41"/>
<path d="M201.62 102.273L205.151 111.456L196.205 115.223L195.42 113.443L192.674 107.218L201.62 102.273Z" fill="#9F616A"/>
<path d="M194.557 108.277C198.913 108.277 202.444 104.745 202.444 100.389C202.444 96.0325 198.913 92.5009 194.557 92.5009C190.202 92.5009 186.671 96.0325 186.671 100.389C186.671 104.745 190.202 108.277 194.557 108.277Z" fill="#9F616A"/>
<path d="M188.112 99.5238C193.068 96.2154 194.55 95.4246 200.231 96.7025L200.572 88.4118L185.891 91.4925L188.112 99.5238Z" fill="#2F2E41"/>
<path d="M219.98 118.281L219.762 118.307C219.757 118.299 219.751 118.292 219.744 118.285C218.881 117.422 214.763 115.852 211.692 114.764H211.688C209.738 114.071 208.212 113.575 208.212 113.575L204.499 109.756C203.564 110.808 201.588 111.62 199.71 112.193C198.273 112.628 196.81 112.977 195.331 113.237H195.327L194.559 115.692C194.559 115.692 185.847 122.288 185.143 122.992H185.14V122.999C185.084 123.079 185.06 123.178 185.075 123.275V123.293C184.635 125.398 184.409 127.543 184.4 129.693H222.336V127.467C222.336 124.406 219.98 118.281 219.98 118.281Z" fill="#575A89"/>
<path d="M289.739 129.693H270.982L269.948 119.5L269.887 118.88L269.76 117.65L269.241 112.512L268.592 118.031L267.222 129.693H263.814L263.941 126.063L264.068 122.383L264.122 120.9L264.822 100.723C264.768 97.5256 265.78 94.4012 267.697 91.8422C268.761 90.4561 270.135 89.3379 271.708 88.5767C273.281 87.8156 275.01 87.4325 276.757 87.458C278.539 87.4522 280.299 87.8594 281.898 88.6477C283.497 89.436 284.891 90.584 285.972 92.0017C287.954 94.5864 289.014 97.7597 288.985 101.017L289.308 113.23L289.739 129.693Z" fill="#2F2E41"/>
<path d="M276.757 107.943C281.314 107.943 285.008 104.248 285.008 99.6904C285.008 95.1325 281.314 91.4377 276.757 91.4377C272.2 91.4377 268.506 95.1325 268.506 99.6904C268.506 104.248 272.2 107.943 276.757 107.943Z" fill="#FBBEBE"/>
<path d="M272.632 105.585C272.632 105.585 274.989 113.543 272.632 115.901C270.274 118.259 269.685 119.143 269.685 119.143L276.462 128.28L288.249 113.838C288.249 113.838 279.998 111.48 282.061 104.996L272.632 105.585Z" fill="#FBBEBE"/>
<rect width="158.11" height="0.369416" transform="matrix(1 0 0 -1 271.89 233.97)" fill="#333333"/>
<path d="M298.085 129.693H291.124L291.008 128.5L290.903 127.398L294.108 126.995L297.972 126.513L298.016 127.75L298.085 129.693Z" fill="#FBBEBE"/>
<path d="M298.562 127.691C298.562 127.691 297.383 120.322 296.499 117.375C295.615 114.427 294.731 114.427 294.731 114.427H294.731L294.731 114.427C293.691 113.386 291.189 113.201 289.308 113.23C287.988 113.245 286.973 113.361 286.973 113.361L276.463 124.45L271.17 117.411V117.407C270.693 117.445 270.221 117.526 269.76 117.65C269.363 117.752 268.973 117.879 268.592 118.031C266.953 118.732 265.442 119.701 264.122 120.9H264.119C263.357 121.585 262.908 122.089 262.908 122.089C261.742 124.513 260.864 127.065 260.29 129.693H293.97L294.046 128.178V128.175L298.562 127.691Z" fill="#56BAE4"/>
<path d="M269.832 98.364C275.161 95.4904 277.35 95.6121 283.976 98.364L285.744 94.0555C285.743 93.2442 285.421 92.4664 284.847 91.8928C284.274 91.3191 283.496 90.9965 282.685 90.9955H270.829C270.018 90.9965 269.24 91.3191 268.667 91.8928C268.093 92.4664 267.771 93.2442 267.77 94.0555L269.832 98.364Z" fill="#2F2E41"/>
<path d="M122.726 154.763C122.287 154.727 121.848 154.825 121.466 155.045C121.103 155.354 120.813 155.738 120.613 156.171C119.691 157.791 118.442 159.202 116.946 160.314C115.856 161.113 114.471 162.109 114.657 163.581C114.755 164.067 114.935 164.533 115.188 164.96C116.193 166.99 118.937 168.558 118.667 170.874C119.666 169.202 118.33 168.375 119.329 166.702C119.804 165.906 120.631 165.007 121.349 165.507C121.589 165.675 121.747 165.975 121.997 166.122C122.595 166.473 123.23 165.802 123.759 165.327C125.583 163.69 128.176 164.119 130.445 164.629C131.516 164.87 132.693 165.186 133.326 166.21C134.159 167.557 132.535 169.011 132.125 170.533C132.091 170.663 132.09 170.799 132.12 170.929C132.151 171.06 132.212 171.181 132.3 171.282C132.387 171.384 132.498 171.463 132.622 171.512C132.747 171.561 132.882 171.58 133.015 171.566C133.696 171.498 134.502 171.443 134.543 171.144C135.399 171.175 136.449 171.078 136.816 170.186C136.928 169.833 136.987 169.465 136.992 169.095C137.127 167.596 137.763 166.229 138.184 164.802C138.605 163.376 138.788 161.704 138.077 160.439C137.824 160.019 137.51 159.637 137.146 159.307C133.111 155.402 127.807 154.758 122.726 154.763Z" fill="#2F2E41"/>
<path d="M119.544 173.8C119.544 173.8 120.422 181.114 117.205 181.699C113.987 182.284 120.129 192.231 120.129 192.231L134.753 193.986L131.244 182.284C131.244 182.284 128.904 181.406 130.366 175.555C131.829 169.704 119.544 173.8 119.544 173.8Z" fill="#9F616A"/>
<path d="M126.125 178.627C130.971 178.627 134.9 174.698 134.9 169.851C134.9 165.003 130.971 161.074 126.125 161.074C121.279 161.074 117.351 165.003 117.351 169.851C117.351 174.698 121.279 178.627 126.125 178.627Z" fill="#9F616A"/>
<path d="M111.023 199.681C112.574 193.578 114.717 185.357 114.717 185.357C114.717 185.357 115.551 185.527 116.863 185.719C118.78 186.005 120.712 186.181 122.649 186.245C125.129 186.314 127.739 186.151 129.759 185.451C130.52 185.207 131.231 184.827 131.858 184.331C132.122 184.118 132.358 183.873 132.561 183.602C136.07 178.92 137.531 196.765 137.531 196.765L137.803 199.681L111.023 199.681Z" fill="#56BAE4"/>
<path d="M139.058 218.537C138.942 218.537 138.826 218.541 138.71 218.548L138.876 218.236C138.934 218.334 138.992 218.436 139.058 218.537Z" fill="#FFB8B8"/>
<path d="M123.154 157.06C122.8 157.033 122.446 157.102 122.128 157.259C121.84 157.469 121.603 157.741 121.434 158.054C120.653 159.228 119.637 160.226 118.448 160.983C117.561 161.548 116.433 162.251 116.585 163.292C116.667 163.641 116.814 163.971 117.017 164.266C117.839 165.716 118.165 167.393 117.949 169.044L120.388 165.498C120.775 164.935 121.448 164.3 122.032 164.653C122.228 164.772 122.357 164.984 122.56 165.088C123.047 165.336 123.564 164.862 123.994 164.526C125.479 163.369 127.59 163.672 129.437 164.033C130.309 164.203 131.267 164.426 131.782 165.15C132.639 166.353 131.745 168.091 132.245 169.481C132.385 169.383 132.503 169.258 132.594 169.113C132.685 168.968 132.746 168.806 132.773 168.638C133.47 168.659 134.324 168.591 134.623 167.96C134.714 167.713 134.763 167.452 134.767 167.189C134.876 166.13 135.394 165.163 135.737 164.155C136.08 163.147 136.229 161.965 135.65 161.071C135.438 160.769 135.183 160.499 134.892 160.271C131.608 157.511 127.289 157.056 123.154 157.06Z" fill="#2F2E41"/>
<path d="M122.323 185.647C120.322 183.359 119.133 180.022 119.078 179.874V179.87C119.078 179.87 115.888 178.042 115.011 179.798C114.133 181.553 105.943 185.94 105.066 185.94C105.059 185.944 105.052 185.946 105.044 185.948C104.696 186.064 100.339 187.648 99.2183 193.548C98.9141 195.579 98.7518 197.628 98.7325 199.68H122.584C122.83 197.095 123.015 194.676 123.088 192.587C123.193 189.676 123.091 187.413 122.649 186.245C122.578 186.027 122.468 185.824 122.323 185.647Z" fill="#2F2E41"/>
<path d="M142.832 187.293C142.817 187.224 142.806 187.166 142.795 187.112C142.756 186.956 142.69 186.809 142.6 186.677C142.598 186.673 142.596 186.67 142.596 186.666C140.907 184.048 130.041 180.443 130.041 180.443L129.635 181.846C129.635 181.846 129.686 183.232 129.759 185.451C129.831 187.529 129.918 190.336 130.001 193.418C130.059 195.431 130.11 197.563 130.157 199.681H146.41C145.499 195.475 144.304 191.336 142.832 187.293Z" fill="#2F2E41"/>
<path d="M294.895 199.681L296.138 193.603L297.295 193.113L297.302 193.117C297.407 193.157 298.665 193.69 298.665 195.71C298.665 196.116 298.603 197.577 298.502 199.681H294.895Z" fill="#575A89"/>
<path d="M281.833 178.452C287.411 178.452 291.932 173.93 291.932 168.351C291.932 162.772 287.411 158.25 281.833 158.25C276.256 158.25 271.735 162.772 271.735 168.351C271.735 173.93 276.256 178.452 281.833 178.452Z" fill="#FFB8B8"/>
<path d="M288.145 174.243L287.303 191.499L274.259 183.924L275.942 174.243H288.145Z" fill="#FFB8B8"/>
<path d="M291.933 192.341L291.077 199.681H284.229L276.797 185.397L274.701 181.375L273.697 180.719L274.861 180.454L275.778 181.118L286.041 188.555L287.687 183.613L287.731 183.486L288.144 182.242L291.933 192.341Z" fill="#56BAE4"/>
<path d="M275.732 158.46C275.732 158.46 276.994 152.147 284.148 153.409L283.306 153.83C283.306 153.83 290.038 152.989 289.197 156.777C289.197 156.777 294.667 160.144 293.405 163.932C292.662 166.127 292.1 168.379 291.722 170.666L290.459 169.403C290.459 169.403 289.197 160.985 281.623 161.827C275.942 162.458 273.628 165.142 273.036 167.075C272.764 167.984 272.416 168.869 271.997 169.72L271.524 169.824C271.524 169.824 268.999 160.565 275.732 158.46Z" fill="#2F2E41"/>
<path d="M297.302 193.117L297.294 193.113L291.933 188.131V184.766L287.792 181.502L287.731 183.486L287.303 196.972L280.418 187.5L275.778 181.118L274.944 179.975L275.147 178.906L272.577 181.817L263.274 188.798L262.476 189.396C261.561 190.312 260.718 191.297 259.953 192.341C259.703 192.714 258.565 195.688 257.082 199.681H298.502C298.603 197.577 298.665 196.116 298.665 195.71C298.665 193.69 297.407 193.157 297.302 193.117Z" fill="#2F2E41"/>
<path d="M200.563 157.255C193.72 157.255 188.172 163.413 188.172 171.01V180.661H191.14L192.858 177.085L192.429 180.661H211.503L213.065 177.41L212.674 180.661H214.822V173.083C214.822 164.342 208.438 157.255 200.563 157.255Z" fill="#2F2E41"/>
<path d="M190.563 199.681H182.504L182.428 193.106C182.424 193.037 182.424 192.972 182.424 192.903L184.038 191.086L184.067 191.054L190.226 194.956L190.563 199.681Z" fill="#D0CDE1"/>
<path d="M199.467 179.312C204.338 179.312 208.288 175.362 208.288 170.489C208.288 165.616 204.338 161.666 199.467 161.666C194.595 161.666 190.646 165.616 190.646 170.489C190.646 175.362 194.595 179.312 199.467 179.312Z" fill="#FBBEBE"/>
<path d="M194.41 175.783C194.41 175.783 196.997 189.194 195.821 190.606C194.645 192.018 208.288 188.018 208.288 188.018C208.288 188.018 203.819 178.842 206.171 173.666L194.41 175.783Z" fill="#FBBEBE"/>
<path d="M218.341 184.853H218.337C218.13 184.413 217.771 184.063 217.326 183.866C215.597 183.138 214.107 182.579 212.881 182.155C210.714 181.411 208.349 181.484 206.232 182.361C206.026 182.445 205.823 182.536 205.623 182.637C205.623 182.637 196.998 184.28 195.972 184.073C195.896 184.059 195.817 184.048 195.74 184.04C195.585 184.018 195.429 184.005 195.273 184.001C193.266 183.907 191.275 184.401 189.545 185.422C186.713 187.065 182.515 189.977 182.428 192.812L182.348 192.903L182.428 199.681H220.284C220.36 193.186 220.404 188.305 220.404 187.975C220.404 186.949 218.341 184.853 218.341 184.853Z" fill="#56BAE4"/>
<path d="M204.086 161.044C203.489 160.243 202.717 159.591 201.827 159.137C200.938 158.683 199.956 158.44 198.958 158.427H198.715C194.025 158.427 190.222 162.672 190.222 167.909V167.909H191.794L192.048 165.977L192.42 167.909H201.741L202.522 166.274L202.327 167.909H204.161C205.016 172.16 203.787 176.41 200.472 180.661H203.596L205.158 177.391L204.767 180.661H210.722L211.893 173.141C211.893 167.509 208.622 162.733 204.086 161.044Z" fill="#2F2E41"/>
<path d="M205.798 161.836C208.361 161.836 210.439 159.758 210.439 157.194C210.439 154.63 208.361 152.552 205.798 152.552C203.235 152.552 201.157 154.63 201.157 157.194C201.157 159.758 203.235 161.836 205.798 161.836Z" fill="#2F2E41"/>
<circle cx="0.738832" cy="212.544" r="0.738832" fill="#4F4F4F"/>
<circle cx="6.64948" cy="212.544" r="0.738832" fill="#4F4F4F"/>
<circle cx="12.5601" cy="212.544" r="0.738832" fill="#4F4F4F"/>
<circle cx="18.4708" cy="212.544" r="0.738832" fill="#4F4F4F"/>
<circle cx="24.3814" cy="212.544" r="0.738832" fill="#4F4F4F"/>
<circle cx="30.2921" cy="212.544" r="0.738832" fill="#4F4F4F"/>
<circle cx="36.2027" cy="212.544" r="0.738832" fill="#4F4F4F"/>
<circle cx="42.1133" cy="212.544" r="0.738832" fill="#4F4F4F"/>
<circle cx="48.0241" cy="212.544" r="0.738832" fill="#4F4F4F"/>
<circle cx="53.9348" cy="212.544" r="0.738832" fill="#4F4F4F"/>
<circle cx="59.8454" cy="212.544" r="0.738832" fill="#4F4F4F"/>
<circle cx="65.756" cy="212.544" r="0.738832" fill="#4F4F4F"/>
<circle cx="71.6667" cy="212.544" r="0.738832" fill="#4F4F4F"/>
<circle cx="77.5773" cy="212.544" r="0.738832" fill="#4F4F4F"/>
<circle cx="83.488" cy="212.544" r="0.738832" fill="#4F4F4F"/>
<circle cx="89.3986" cy="212.544" r="0.738832" fill="#4F4F4F"/>
<circle cx="95.3093" cy="212.544" r="0.738832" fill="#4F4F4F"/>
<circle cx="101.22" cy="212.544" r="0.738832" fill="#4F4F4F"/>
<circle cx="107.131" cy="212.544" r="0.738832" fill="#4F4F4F"/>
<circle cx="113.041" cy="212.544" r="0.738832" fill="#4F4F4F"/>
<circle cx="118.952" cy="212.544" r="0.738832" fill="#4F4F4F"/>
<circle cx="124.862" cy="212.544" r="0.738832" fill="#4F4F4F"/>
<circle cx="130.773" cy="212.544" r="0.738832" fill="#4F4F4F"/>
<circle cx="136.684" cy="212.544" r="0.738832" fill="#4F4F4F"/>
<circle cx="142.595" cy="212.544" r="0.738832" fill="#4F4F4F"/>
<circle cx="148.505" cy="212.544" r="0.738832" fill="#4F4F4F"/>
<circle cx="154.416" cy="212.544" r="0.738832" fill="#4F4F4F"/>
<circle cx="160.326" cy="212.544" r="0.738832" fill="#4F4F4F"/>
<circle cx="0.738832" cy="220.671" r="0.738832" fill="#4F4F4F"/>
<circle cx="6.64948" cy="220.671" r="0.738832" fill="#4F4F4F"/>
<circle cx="12.5601" cy="220.671" r="0.738832" fill="#4F4F4F"/>
<circle cx="18.4708" cy="220.671" r="0.738832" fill="#4F4F4F"/>
<circle cx="24.3814" cy="220.671" r="0.738832" fill="#4F4F4F"/>
<circle cx="30.2921" cy="220.671" r="0.738832" fill="#4F4F4F"/>
<circle cx="36.2027" cy="220.671" r="0.738832" fill="#4F4F4F"/>
<circle cx="42.1133" cy="220.671" r="0.738832" fill="#4F4F4F"/>
<circle cx="48.0241" cy="220.671" r="0.738832" fill="#4F4F4F"/>
<circle cx="53.9348" cy="220.671" r="0.738832" fill="#4F4F4F"/>
<circle cx="59.8454" cy="220.671" r="0.738832" fill="#4F4F4F"/>
<circle cx="65.756" cy="220.671" r="0.738832" fill="#4F4F4F"/>
<circle cx="71.6667" cy="220.671" r="0.738832" fill="#4F4F4F"/>
<circle cx="77.5773" cy="220.671" r="0.738832" fill="#4F4F4F"/>
<circle cx="83.488" cy="220.671" r="0.738832" fill="#4F4F4F"/>
<circle cx="89.3986" cy="220.671" r="0.738832" fill="#4F4F4F"/>
<circle cx="95.3093" cy="220.671" r="0.738832" fill="#4F4F4F"/>
<circle cx="101.22" cy="220.671" r="0.738832" fill="#4F4F4F"/>
<circle cx="107.131" cy="220.671" r="0.738832" fill="#4F4F4F"/>
<circle cx="113.041" cy="220.671" r="0.738832" fill="#4F4F4F"/>
<circle cx="118.952" cy="220.671" r="0.738832" fill="#4F4F4F"/>
<circle cx="124.862" cy="220.671" r="0.738832" fill="#4F4F4F"/>
<circle cx="130.773" cy="220.671" r="0.738832" fill="#4F4F4F"/>
<circle cx="136.684" cy="220.671" r="0.738832" fill="#4F4F4F"/>
<circle cx="142.595" cy="220.671" r="0.738832" fill="#4F4F4F"/>
<circle cx="148.505" cy="220.671" r="0.738832" fill="#4F4F4F"/>
<circle cx="154.416" cy="220.671" r="0.738832" fill="#4F4F4F"/>
<circle cx="160.326" cy="220.671" r="0.738832" fill="#4F4F4F"/>
<circle cx="0.738832" cy="228.798" r="0.738832" fill="#4F4F4F"/>
<circle cx="6.64948" cy="228.798" r="0.738832" fill="#4F4F4F"/>
<circle cx="12.5601" cy="228.798" r="0.738832" fill="#4F4F4F"/>
<circle cx="18.4708" cy="228.798" r="0.738832" fill="#4F4F4F"/>
<circle cx="24.3814" cy="228.798" r="0.738832" fill="#4F4F4F"/>
<circle cx="30.2921" cy="228.798" r="0.738832" fill="#4F4F4F"/>
<circle cx="36.2027" cy="228.798" r="0.738832" fill="#4F4F4F"/>
<circle cx="42.1133" cy="228.798" r="0.738832" fill="#4F4F4F"/>
<circle cx="48.0241" cy="228.798" r="0.738832" fill="#4F4F4F"/>
<circle cx="53.9348" cy="228.798" r="0.738832" fill="#4F4F4F"/>
<circle cx="59.8454" cy="228.798" r="0.738832" fill="#4F4F4F"/>
<circle cx="65.756" cy="228.798" r="0.738832" fill="#4F4F4F"/>
<circle cx="71.6667" cy="228.798" r="0.738832" fill="#4F4F4F"/>
<circle cx="77.5773" cy="228.798" r="0.738832" fill="#4F4F4F"/>
<circle cx="83.488" cy="228.798" r="0.738832" fill="#4F4F4F"/>
<circle cx="89.3986" cy="228.798" r="0.738832" fill="#4F4F4F"/>
<circle cx="95.3093" cy="228.798" r="0.738832" fill="#4F4F4F"/>
<circle cx="101.22" cy="228.798" r="0.738832" fill="#4F4F4F"/>
<circle cx="107.131" cy="228.798" r="0.738832" fill="#4F4F4F"/>
<circle cx="113.041" cy="228.798" r="0.738832" fill="#4F4F4F"/>
<circle cx="118.952" cy="228.798" r="0.738832" fill="#4F4F4F"/>
<circle cx="124.862" cy="228.798" r="0.738832" fill="#4F4F4F"/>
<circle cx="130.773" cy="228.798" r="0.738832" fill="#4F4F4F"/>
<circle cx="136.684" cy="228.798" r="0.738832" fill="#4F4F4F"/>
<circle cx="142.595" cy="228.798" r="0.738832" fill="#4F4F4F"/>
<circle cx="148.505" cy="228.798" r="0.738832" fill="#4F4F4F"/>
<circle cx="154.416" cy="228.798" r="0.738832" fill="#4F4F4F"/>
<circle cx="160.326" cy="228.798" r="0.738832" fill="#4F4F4F"/>
<circle cx="0.738832" cy="236.925" r="0.738832" fill="#4F4F4F"/>
<circle cx="6.64948" cy="236.925" r="0.738832" fill="#4F4F4F"/>
<circle cx="12.5601" cy="236.925" r="0.738832" fill="#4F4F4F"/>
<circle cx="18.4708" cy="236.925" r="0.738832" fill="#4F4F4F"/>
<circle cx="24.3814" cy="236.925" r="0.738832" fill="#4F4F4F"/>
<circle cx="30.2921" cy="236.925" r="0.738832" fill="#4F4F4F"/>
<circle cx="36.2027" cy="236.925" r="0.738832" fill="#4F4F4F"/>
<circle cx="42.1133" cy="236.925" r="0.738832" fill="#4F4F4F"/>
<circle cx="48.0241" cy="236.925" r="0.738832" fill="#4F4F4F"/>
<circle cx="53.9348" cy="236.925" r="0.738832" fill="#4F4F4F"/>
<circle cx="59.8454" cy="236.925" r="0.738832" fill="#4F4F4F"/>
<circle cx="65.756" cy="236.925" r="0.738832" fill="#4F4F4F"/>
<circle cx="71.6667" cy="236.925" r="0.738832" fill="#4F4F4F"/>
<circle cx="77.5773" cy="236.925" r="0.738832" fill="#4F4F4F"/>
<circle cx="83.488" cy="236.925" r="0.738832" fill="#4F4F4F"/>
<circle cx="89.3986" cy="236.925" r="0.738832" fill="#4F4F4F"/>
<circle cx="95.3093" cy="236.925" r="0.738832" fill="#4F4F4F"/>
<circle cx="101.22" cy="236.925" r="0.738832" fill="#4F4F4F"/>
<circle cx="107.131" cy="236.925" r="0.738832" fill="#4F4F4F"/>
<circle cx="113.041" cy="236.925" r="0.738832" fill="#4F4F4F"/>
<circle cx="118.952" cy="236.925" r="0.738832" fill="#4F4F4F"/>
<circle cx="124.862" cy="236.925" r="0.738832" fill="#4F4F4F"/>
<circle cx="130.773" cy="236.925" r="0.738832" fill="#4F4F4F"/>
<circle cx="136.684" cy="236.925" r="0.738832" fill="#4F4F4F"/>
<circle cx="142.595" cy="236.925" r="0.738832" fill="#4F4F4F"/>
<circle cx="148.505" cy="236.925" r="0.738832" fill="#4F4F4F"/>
<circle cx="154.416" cy="236.925" r="0.738832" fill="#4F4F4F"/>
<circle cx="160.326" cy="236.925" r="0.738832" fill="#4F4F4F"/>
<path d="M92.4584 25.9563H41.5895C41.5193 25.9563 41.4519 25.9262 41.4022 25.8727C41.3525 25.8193 41.3246 25.7467 41.3246 25.6711C41.3246 25.5955 41.3525 25.5229 41.4022 25.4695C41.4519 25.416 41.5193 25.3859 41.5895 25.3859H92.4584C92.5286 25.3859 92.596 25.416 92.6457 25.4695C92.6954 25.5229 92.7233 25.5955 92.7233 25.6711C92.7233 25.7467 92.6954 25.8193 92.6457 25.8727C92.596 25.9262 92.5286 25.9563 92.4584 25.9563Z" fill="#CCCCCC"/>
<path d="M218.11 12.8908H167.241C167.171 12.8908 167.103 12.8607 167.054 12.8072C167.004 12.7538 166.976 12.6812 166.976 12.6056C166.976 12.53 167.004 12.4574 167.054 12.404C167.103 12.3505 167.171 12.3204 167.241 12.3204H218.11C218.18 12.3204 218.247 12.3505 218.297 12.404C218.347 12.4574 218.375 12.53 218.375 12.6056C218.375 12.6812 218.347 12.7538 218.297 12.8072C218.247 12.8607 218.18 12.8908 218.11 12.8908Z" fill="#CCCCCC"/>
<path d="M406.512 246.362H355.643C355.573 246.362 355.505 246.332 355.456 246.278C355.406 246.225 355.378 246.152 355.378 246.076C355.378 246.001 355.406 245.928 355.456 245.875C355.505 245.821 355.573 245.791 355.643 245.791H406.512C406.582 245.791 406.649 245.821 406.699 245.875C406.749 245.928 406.777 246.001 406.777 246.076C406.777 246.152 406.749 246.225 406.699 246.278C406.649 246.332 406.582 246.362 406.512 246.362Z" fill="#CCCCCC"/>
<circle cx="255.636" cy="16.0146" r="0.738832" fill="#4F4F4F"/>
<circle cx="261.546" cy="16.0146" r="0.738832" fill="#4F4F4F"/>
<circle cx="267.457" cy="16.0146" r="0.738832" fill="#4F4F4F"/>
<circle cx="273.368" cy="16.0146" r="0.738832" fill="#4F4F4F"/>
<circle cx="279.278" cy="16.0146" r="0.738832" fill="#4F4F4F"/>
<circle cx="285.189" cy="16.0146" r="0.738832" fill="#4F4F4F"/>
<circle cx="291.1" cy="16.0146" r="0.738832" fill="#4F4F4F"/>
<circle cx="297.01" cy="16.0146" r="0.738832" fill="#4F4F4F"/>
<circle cx="302.921" cy="16.0146" r="0.738832" fill="#4F4F4F"/>
<circle cx="308.832" cy="16.0146" r="0.738832" fill="#4F4F4F"/>
<circle cx="314.742" cy="16.0146" r="0.738832" fill="#4F4F4F"/>
<circle cx="320.653" cy="16.0146" r="0.738832" fill="#4F4F4F"/>
<circle cx="326.564" cy="16.0146" r="0.738832" fill="#4F4F4F"/>
<circle cx="332.474" cy="16.0146" r="0.738832" fill="#4F4F4F"/>
<circle cx="338.385" cy="16.0146" r="0.738832" fill="#4F4F4F"/>
<circle cx="344.295" cy="16.0146" r="0.738832" fill="#4F4F4F"/>
<circle cx="350.206" cy="16.0146" r="0.738832" fill="#4F4F4F"/>
<circle cx="356.117" cy="16.0146" r="0.738832" fill="#4F4F4F"/>
<circle cx="362.028" cy="16.0146" r="0.738832" fill="#4F4F4F"/>
<circle cx="367.938" cy="16.0146" r="0.738832" fill="#4F4F4F"/>
<circle cx="373.849" cy="16.0146" r="0.738832" fill="#4F4F4F"/>
<circle cx="379.759" cy="16.0146" r="0.738832" fill="#4F4F4F"/>
<circle cx="385.67" cy="16.0146" r="0.738832" fill="#4F4F4F"/>
<circle cx="391.581" cy="16.0146" r="0.738832" fill="#4F4F4F"/>
<circle cx="397.491" cy="16.0146" r="0.738832" fill="#4F4F4F"/>
<circle cx="403.402" cy="16.0146" r="0.738832" fill="#4F4F4F"/>
<circle cx="409.313" cy="16.0146" r="0.738832" fill="#4F4F4F"/>
<circle cx="415.223" cy="16.0146" r="0.738832" fill="#4F4F4F"/>
<circle cx="255.636" cy="24.1417" r="0.738832" fill="#4F4F4F"/>
<circle cx="261.546" cy="24.1417" r="0.738832" fill="#4F4F4F"/>
<circle cx="267.457" cy="24.1417" r="0.738832" fill="#4F4F4F"/>
<circle cx="273.368" cy="24.1417" r="0.738832" fill="#4F4F4F"/>
<circle cx="279.278" cy="24.1417" r="0.738832" fill="#4F4F4F"/>
<circle cx="285.189" cy="24.1417" r="0.738832" fill="#4F4F4F"/>
<circle cx="291.1" cy="24.1417" r="0.738832" fill="#4F4F4F"/>
<circle cx="297.01" cy="24.1417" r="0.738832" fill="#4F4F4F"/>
<circle cx="302.921" cy="24.1417" r="0.738832" fill="#4F4F4F"/>
<circle cx="308.832" cy="24.1417" r="0.738832" fill="#4F4F4F"/>
<circle cx="314.742" cy="24.1417" r="0.738832" fill="#4F4F4F"/>
<circle cx="320.653" cy="24.1417" r="0.738832" fill="#4F4F4F"/>
<circle cx="326.564" cy="24.1417" r="0.738832" fill="#4F4F4F"/>
<circle cx="332.474" cy="24.1417" r="0.738832" fill="#4F4F4F"/>
<circle cx="338.385" cy="24.1417" r="0.738832" fill="#4F4F4F"/>
<circle cx="344.295" cy="24.1417" r="0.738832" fill="#4F4F4F"/>
<circle cx="350.206" cy="24.1417" r="0.738832" fill="#4F4F4F"/>
<circle cx="356.117" cy="24.1417" r="0.738832" fill="#4F4F4F"/>
<circle cx="362.028" cy="24.1417" r="0.738832" fill="#4F4F4F"/>
<circle cx="367.938" cy="24.1417" r="0.738832" fill="#4F4F4F"/>
<circle cx="373.849" cy="24.1417" r="0.738832" fill="#4F4F4F"/>
<circle cx="379.759" cy="24.1417" r="0.738832" fill="#4F4F4F"/>
<circle cx="385.67" cy="24.1417" r="0.738832" fill="#4F4F4F"/>
<circle cx="391.581" cy="24.1417" r="0.738832" fill="#4F4F4F"/>
<circle cx="397.491" cy="24.1417" r="0.738832" fill="#4F4F4F"/>
<circle cx="403.402" cy="24.1417" r="0.738832" fill="#4F4F4F"/>
<circle cx="409.313" cy="24.1417" r="0.738832" fill="#4F4F4F"/>
<circle cx="415.223" cy="24.1417" r="0.738832" fill="#4F4F4F"/>
<circle cx="255.636" cy="32.2689" r="0.738832" fill="#4F4F4F"/>
<circle cx="261.546" cy="32.2689" r="0.738832" fill="#4F4F4F"/>
<circle cx="267.457" cy="32.2689" r="0.738832" fill="#4F4F4F"/>
<circle cx="273.368" cy="32.2689" r="0.738832" fill="#4F4F4F"/>
<circle cx="279.278" cy="32.2689" r="0.738832" fill="#4F4F4F"/>
<circle cx="285.189" cy="32.2689" r="0.738832" fill="#4F4F4F"/>
<circle cx="291.1" cy="32.2689" r="0.738832" fill="#4F4F4F"/>
<circle cx="297.01" cy="32.2689" r="0.738832" fill="#4F4F4F"/>
<circle cx="302.921" cy="32.2689" r="0.738832" fill="#4F4F4F"/>
<circle cx="308.832" cy="32.2689" r="0.738832" fill="#4F4F4F"/>
<circle cx="314.742" cy="32.2689" r="0.738832" fill="#4F4F4F"/>
<circle cx="320.653" cy="32.2689" r="0.738832" fill="#4F4F4F"/>
<circle cx="326.564" cy="32.2689" r="0.738832" fill="#4F4F4F"/>
<circle cx="332.474" cy="32.2689" r="0.738832" fill="#4F4F4F"/>
<circle cx="338.385" cy="32.2689" r="0.738832" fill="#4F4F4F"/>
<circle cx="344.295" cy="32.2689" r="0.738832" fill="#4F4F4F"/>
<circle cx="350.206" cy="32.2689" r="0.738832" fill="#4F4F4F"/>
<circle cx="356.117" cy="32.2689" r="0.738832" fill="#4F4F4F"/>
<circle cx="362.028" cy="32.2689" r="0.738832" fill="#4F4F4F"/>
<circle cx="367.938" cy="32.2689" r="0.738832" fill="#4F4F4F"/>
<circle cx="373.849" cy="32.2689" r="0.738832" fill="#4F4F4F"/>
<circle cx="379.759" cy="32.2689" r="0.738832" fill="#4F4F4F"/>
<circle cx="385.67" cy="32.2689" r="0.738832" fill="#4F4F4F"/>
<circle cx="391.581" cy="32.2689" r="0.738832" fill="#4F4F4F"/>
<circle cx="397.491" cy="32.2689" r="0.738832" fill="#4F4F4F"/>
<circle cx="403.402" cy="32.2689" r="0.738832" fill="#4F4F4F"/>
<circle cx="409.313" cy="32.2689" r="0.738832" fill="#4F4F4F"/>
<circle cx="415.223" cy="32.2689" r="0.738832" fill="#4F4F4F"/>
<circle cx="255.636" cy="40.3961" r="0.738832" fill="#4F4F4F"/>
<circle cx="261.546" cy="40.3961" r="0.738832" fill="#4F4F4F"/>
<circle cx="267.457" cy="40.3961" r="0.738832" fill="#4F4F4F"/>
<circle cx="273.368" cy="40.3961" r="0.738832" fill="#4F4F4F"/>
<circle cx="279.278" cy="40.3961" r="0.738832" fill="#4F4F4F"/>
<circle cx="285.189" cy="40.3961" r="0.738832" fill="#4F4F4F"/>
<circle cx="291.1" cy="40.3961" r="0.738832" fill="#4F4F4F"/>
<circle cx="297.01" cy="40.3961" r="0.738832" fill="#4F4F4F"/>
<circle cx="302.921" cy="40.3961" r="0.738832" fill="#4F4F4F"/>
<circle cx="308.832" cy="40.3961" r="0.738832" fill="#4F4F4F"/>
<circle cx="314.742" cy="40.3961" r="0.738832" fill="#4F4F4F"/>
<circle cx="320.653" cy="40.3961" r="0.738832" fill="#4F4F4F"/>
<circle cx="326.564" cy="40.3961" r="0.738832" fill="#4F4F4F"/>
<circle cx="332.474" cy="40.3961" r="0.738832" fill="#4F4F4F"/>
<circle cx="338.385" cy="40.3961" r="0.738832" fill="#4F4F4F"/>
<circle cx="344.295" cy="40.3961" r="0.738832" fill="#4F4F4F"/>
<circle cx="350.206" cy="40.3961" r="0.738832" fill="#4F4F4F"/>
<circle cx="356.117" cy="40.3961" r="0.738832" fill="#4F4F4F"/>
<circle cx="362.028" cy="40.3961" r="0.738832" fill="#4F4F4F"/>
<circle cx="367.938" cy="40.3961" r="0.738832" fill="#4F4F4F"/>
<circle cx="373.849" cy="40.3961" r="0.738832" fill="#4F4F4F"/>
<circle cx="379.759" cy="40.3961" r="0.738832" fill="#4F4F4F"/>
<circle cx="385.67" cy="40.3961" r="0.738832" fill="#4F4F4F"/>
<circle cx="391.581" cy="40.3961" r="0.738832" fill="#4F4F4F"/>
<circle cx="397.491" cy="40.3961" r="0.738832" fill="#4F4F4F"/>
<circle cx="403.402" cy="40.3961" r="0.738832" fill="#4F4F4F"/>
<circle cx="409.313" cy="40.3961" r="0.738832" fill="#4F4F4F"/>
<circle cx="415.223" cy="40.3961" r="0.738832" fill="#4F4F4F"/>
<path d="M53.1959 43.7466C53.1959 38.2237 57.6731 33.7466 63.1959 33.7466H339.467C344.99 33.7466 349.467 38.2237 349.467 43.7466V46.3067H53.1959V43.7466Z" fill="#56BAE4"/>
<path d="M62.5454 42.5128C63.8332 42.5128 64.8772 41.4685 64.8772 40.1803C64.8772 38.8922 63.8332 37.8479 62.5454 37.8479C61.2575 37.8479 60.2135 38.8922 60.2135 40.1803C60.2135 41.4685 61.2575 42.5128 62.5454 42.5128Z" fill="white"/>
<path d="M71.3964 42.5128C72.6843 42.5128 73.7283 41.4685 73.7283 40.1803C73.7283 38.8922 72.6843 37.8479 71.3964 37.8479C70.1086 37.8479 69.0646 38.8922 69.0646 40.1803C69.0646 41.4685 70.1086 42.5128 71.3964 42.5128Z" fill="white"/>
<path d="M80.2476 42.5128C81.5355 42.5128 82.5795 41.4685 82.5795 40.1803C82.5795 38.8922 81.5355 37.8479 80.2476 37.8479C78.9598 37.8479 77.9158 38.8922 77.9158 40.1803C77.9158 41.4685 78.9598 42.5128 80.2476 42.5128Z" fill="white"/>
</svg>
