<svg width="340" height="235" viewBox="0 0 340 235" fill="none" xmlns="http://www.w3.org/2000/svg">
<g clip-path="url(#clip0)">
<path d="M336.787 88.9502H336.695L284.011 111.464L211.927 142.268C211.645 142.386 211.343 142.448 211.037 142.45C210.732 142.451 210.429 142.392 210.146 142.277L135.777 111.4L81.7977 88.9869L81.7153 88.9502H81.6234C80.7717 88.9511 79.9551 89.2902 79.3528 89.8929C78.7506 90.4956 78.4118 91.3128 78.4109 92.1651V231.785C78.4118 232.637 78.7506 233.455 79.3528 234.057C79.9551 234.66 80.7717 234.999 81.6234 235H336.787C337.639 234.999 338.456 234.66 339.058 234.057C339.66 233.455 339.999 232.637 340 231.785V92.1651C339.999 91.3128 339.66 90.4956 339.058 89.8929C338.456 89.2902 337.639 88.9511 336.787 88.9502Z" fill="white"/>
<path d="M337.705 89.8688C337.611 89.8688 337.52 89.8401 337.443 89.7865L210.522 1.32826C210.136 1.06032 209.677 0.917131 209.207 0.917933C208.737 0.918735 208.279 1.06349 207.894 1.33275L81.8872 89.7856C81.8378 89.8202 81.7821 89.8448 81.7233 89.8579C81.6644 89.871 81.6036 89.8724 81.5442 89.8619C81.4848 89.8515 81.4281 89.8295 81.3772 89.7971C81.3264 89.7647 81.2824 89.7226 81.2478 89.6733C81.2132 89.6239 81.1886 89.5681 81.1755 89.5093C81.1624 89.4504 81.161 89.3895 81.1715 89.3301C81.1819 89.2707 81.2039 89.2139 81.2362 89.163C81.2686 89.1121 81.3106 89.068 81.36 89.0334L207.366 0.580596C207.906 0.203691 208.548 0.00108647 209.206 4.35742e-06C209.864 -0.00107776 210.506 0.199413 211.047 0.574541L337.968 89.0325C338.048 89.0884 338.108 89.1685 338.14 89.261C338.171 89.3536 338.172 89.4538 338.143 89.5471C338.114 89.6404 338.056 89.7219 337.977 89.7798C337.898 89.8376 337.803 89.8688 337.705 89.8687L337.705 89.8688Z" fill="#3F3D56"/>
<path d="M89.0876 93.0043L209.332 3.82074L330.489 99.3502L215.527 167.553L153.113 153.315L89.0876 93.0043Z" fill="#E6E6E6"/>
<path d="M158.382 209.678H98.9779C98.6131 209.679 98.2518 209.607 97.9147 209.468C97.5776 209.329 97.2712 209.124 97.0131 208.866C96.755 208.608 96.5503 208.302 96.4106 207.965C96.2709 207.628 96.199 207.266 96.199 206.901C96.199 206.536 96.2709 206.175 96.4106 205.837C96.5503 205.5 96.755 205.194 97.0131 204.936C97.2712 204.678 97.5776 204.473 97.9147 204.334C98.2518 204.195 98.6131 204.123 98.9779 204.124H158.382C158.746 204.123 159.108 204.195 159.445 204.334C159.782 204.473 160.088 204.678 160.346 204.936C160.604 205.194 160.809 205.5 160.949 205.837C161.089 206.175 161.161 206.536 161.161 206.901C161.161 207.266 161.089 207.628 160.949 207.965C160.809 208.302 160.604 208.608 160.346 208.866C160.088 209.124 159.782 209.329 159.445 209.468C159.108 209.607 158.746 209.679 158.382 209.678Z" fill="#56BAE4"/>
<path d="M120.291 197.737H98.9779C98.6131 197.738 98.2518 197.666 97.9147 197.527C97.5776 197.387 97.2712 197.183 97.0131 196.925C96.755 196.667 96.5503 196.361 96.4106 196.023C96.2709 195.686 96.199 195.325 96.199 194.96C96.199 194.595 96.2709 194.233 96.4106 193.896C96.5503 193.559 96.755 193.253 97.0131 192.995C97.2712 192.737 97.5776 192.532 97.9147 192.393C98.2518 192.253 98.6131 192.182 98.9779 192.182H120.291C120.655 192.182 121.017 192.253 121.354 192.393C121.691 192.532 121.997 192.737 122.255 192.995C122.513 193.253 122.718 193.559 122.858 193.896C122.998 194.233 123.069 194.595 123.069 194.96C123.069 195.325 122.998 195.686 122.858 196.023C122.718 196.361 122.513 196.667 122.255 196.925C121.997 197.183 121.691 197.387 121.354 197.527C121.017 197.666 120.655 197.738 120.291 197.737Z" fill="#56BAE4"/>
<path d="M211.023 142.679C210.571 142.679 210.124 142.591 209.706 142.42L135.548 111.626V15.2364C135.549 14.384 135.887 13.5669 136.49 12.9642C137.092 12.3615 137.908 12.0224 138.76 12.0214H281.028C281.88 12.0224 282.696 12.3615 283.298 12.9642C283.901 13.5669 284.239 14.384 284.24 15.2364V111.694L284.101 111.753L212.38 142.405C211.95 142.586 211.489 142.679 211.023 142.679Z" fill="white"/>
<path d="M211.023 142.908C210.541 142.908 210.064 142.815 209.619 142.633L135.318 111.78V15.2363C135.319 14.3231 135.682 13.4475 136.327 12.8018C136.973 12.156 137.848 11.7928 138.76 11.7917H281.028C281.94 11.7928 282.815 12.156 283.461 12.8018C284.106 13.4475 284.469 14.3231 284.47 15.2363V111.845L212.47 142.616C212.012 142.809 211.52 142.908 211.023 142.908ZM136.236 111.166L209.969 141.784C210.657 142.063 211.427 142.058 212.111 141.771L283.552 111.239V15.2363C283.551 14.5666 283.285 13.9246 282.812 13.451C282.339 12.9775 281.697 12.7111 281.028 12.7103H138.76C138.091 12.7111 137.449 12.9775 136.976 13.451C136.503 13.9246 136.237 14.5666 136.236 15.2363V111.166Z" fill="#3F3D56"/>
<path d="M336.787 88.9502H336.695L284.011 111.464L211.927 142.268C211.645 142.386 211.343 142.448 211.037 142.45C210.732 142.451 210.429 142.392 210.146 142.277L135.777 111.4L81.7977 88.9869L81.7153 88.9502H81.6234C80.7717 88.9511 79.9551 89.2902 79.3528 89.8929C78.7506 90.4956 78.4118 91.3128 78.4109 92.1651V231.785C78.4118 232.637 78.7506 233.455 79.3528 234.057C79.9551 234.66 80.7717 234.999 81.6234 235H336.787C337.639 234.999 338.456 234.66 339.058 234.057C339.66 233.455 339.999 232.637 340 231.785V92.1651C339.999 91.3128 339.66 90.4956 339.058 89.8929C338.456 89.2902 337.639 88.9511 336.787 88.9502ZM339.082 231.785C339.082 232.394 338.84 232.978 338.41 233.409C337.979 233.839 337.396 234.081 336.787 234.081H81.6234C81.0149 234.081 80.4314 233.839 80.0011 233.409C79.5708 232.978 79.329 232.394 79.3287 231.785V92.1651C79.3296 91.5713 79.5598 91.0007 79.9711 90.5728C80.3825 90.1448 80.9433 89.8926 81.5362 89.8687L135.777 112.392L209.793 143.126C210.594 143.453 211.492 143.448 212.289 143.113L284.011 112.461L336.879 89.8687C337.471 89.8943 338.03 90.1473 338.441 90.575C338.851 91.0027 339.081 91.5722 339.082 92.1651V231.785Z" fill="#3F3D56"/>
<path d="M199.478 48.0523H148.996C148.022 48.0523 147.088 47.6652 146.4 46.9762C145.711 46.2871 145.324 45.3526 145.324 44.3781C145.324 43.4037 145.711 42.4691 146.4 41.7801C147.088 41.091 148.022 40.7039 148.996 40.7039H199.478C200.451 40.7039 201.385 41.091 202.074 41.7801C202.762 42.4691 203.149 43.4037 203.149 44.3781C203.149 45.3526 202.762 46.2871 202.074 46.9762C201.385 47.6652 200.451 48.0523 199.478 48.0523Z" fill="#56BAE4"/>
<path d="M173.319 32.4369H148.996C148.022 32.4369 147.088 32.0498 146.4 31.3608C145.711 30.6717 145.324 29.7372 145.324 28.7627C145.324 27.7882 145.711 26.8537 146.4 26.1647C147.088 25.4756 148.022 25.0885 148.996 25.0885H173.319C174.293 25.0885 175.226 25.4756 175.915 26.1647C176.603 26.8537 176.99 27.7882 176.99 28.7627C176.99 29.7372 176.603 30.6717 175.915 31.3608C175.226 32.0498 174.293 32.4369 173.319 32.4369Z" fill="#56BAE4"/>
<path d="M247.651 84.7945H170.551C169.577 84.7945 168.643 84.4074 167.955 83.7183C167.266 83.0293 166.879 82.0947 166.879 81.1203C166.879 80.1458 167.266 79.2112 167.955 78.5222C168.643 77.8331 169.577 77.446 170.551 77.446H247.651C248.624 77.446 249.558 77.8331 250.247 78.5222C250.935 79.2112 251.322 80.1458 251.322 81.1203C251.322 82.0947 250.935 83.0293 250.247 83.7183C249.558 84.4074 248.624 84.7945 247.651 84.7945Z" fill="#CCCCCC"/>
<path d="M247.651 101.788H170.551C169.577 101.788 168.643 101.401 167.955 100.711C167.266 100.022 166.879 99.0879 166.879 98.1134C166.879 97.139 167.266 96.2044 167.955 95.5154C168.643 94.8263 169.577 94.4392 170.551 94.4392H247.651C248.624 94.4392 249.558 94.8263 250.247 95.5154C250.935 96.2044 251.322 97.139 251.322 98.1134C251.322 99.0879 250.935 100.022 250.247 100.711C249.558 101.401 248.624 101.788 247.651 101.788Z" fill="#CCCCCC"/>
<path d="M18.7923 106.083C18.3153 106.082 17.8532 105.916 17.4843 105.614C17.1154 105.311 16.8623 104.89 16.7679 104.422L15.098 96.0913C14.2124 91.6724 15.1171 87.0824 17.6132 83.3311C20.1092 79.5797 23.9921 76.9743 28.4077 76.0881C32.8233 75.2018 37.4098 76.1072 41.1583 78.6051C44.9068 81.1031 47.5102 84.9889 48.3958 89.4078L50.0653 97.7387C50.1724 98.276 50.0622 98.8339 49.7588 99.29C49.4554 99.7461 48.9836 100.063 48.4469 100.171L19.1992 106.042C19.0652 106.069 18.9289 106.083 18.7923 106.083Z" fill="#2F2E41"/>
<path d="M70.7153 230.124L65.4689 230.124L62.9741 209.872L70.7172 209.872L70.7153 230.124Z" fill="#A0616A"/>
<path d="M61.7211 228.624H71.8395V234.999H55.3503C55.3503 233.308 56.0215 231.687 57.2163 230.491C58.411 229.295 60.0315 228.624 61.7211 228.624Z" fill="#2F2E41"/>
<path d="M16.0482 230.072L11.217 228.024L16.8105 208.401L23.9404 211.424L16.0482 230.072Z" fill="#A0616A"/>
<path d="M8.35098 225.18L17.6681 229.129L15.1835 235L-3.52886e-06 228.564C0.326283 227.793 0.801108 227.094 1.39737 226.507C1.99363 225.92 2.69965 225.456 3.47511 225.141C4.25057 224.827 5.08029 224.669 5.9169 224.675C6.7535 224.682 7.5806 224.854 8.35098 225.18Z" fill="#2F2E41"/>
<path d="M32.2276 103.995C38.4528 103.995 43.4993 98.9448 43.4993 92.7149C43.4993 86.485 38.4528 81.4346 32.2276 81.4346C26.0023 81.4346 20.9558 86.485 20.9558 92.7149C20.9558 98.9448 26.0023 103.995 32.2276 103.995Z" fill="#A0616A"/>
<path d="M32.7611 144.031L32.6455 143.655C29.574 133.663 26.3993 123.336 23.2201 113.514L23.134 113.249L23.3294 113.051C28.2643 108.027 37.509 106.023 44.8342 108.391C52.2064 110.773 57.2868 117.453 56.6517 123.93C56.3139 127.822 57.3585 131.707 59.6017 134.904L59.8958 135.331L59.436 135.571C51.2006 139.812 42.3173 142.652 33.1503 143.974L32.7611 144.031Z" fill="#3F3D56"/>
<path d="M19.1669 226.433C18.7649 226.432 18.3703 226.325 18.0226 226.124L11.9338 222.604C11.4343 222.319 11.0609 221.856 10.8881 221.307C10.7154 220.758 10.7561 220.164 11.0021 219.644L24.5316 187.517L34.8716 140.659L53.7155 133.802L53.8868 133.881C74.0897 143.168 72.528 209.737 72.0097 222.988C71.9864 223.545 71.7613 224.075 71.3764 224.479C70.9915 224.882 70.4731 225.132 69.9177 225.181L64.2513 225.922C63.6752 225.973 63.1009 225.806 62.6415 225.454C62.1821 225.103 61.8708 224.592 61.7688 224.022L50.2006 172.283C50.189 172.185 50.146 172.093 50.0779 172.021C50.0099 171.949 49.9206 171.901 49.8232 171.884C49.7298 171.866 49.6331 171.878 49.5471 171.919C49.4612 171.96 49.3903 172.027 49.3449 172.11L21.1734 225.255C21.025 225.522 20.8247 225.756 20.5844 225.944C20.344 226.133 20.0684 226.271 19.7739 226.35C19.5761 226.405 19.3719 226.432 19.1669 226.433Z" fill="#2F2E41"/>
<path d="M25.9346 179.216C26.2904 178.697 26.5281 178.106 26.631 177.485C26.7339 176.864 26.6995 176.227 26.5301 175.621C26.3608 175.015 26.0607 174.453 25.6509 173.975C25.2411 173.497 24.7316 173.115 24.1584 172.856L24.4665 163.019L18.5391 161.374L18.2989 175.271C17.9273 176.264 17.9325 177.359 18.3135 178.348C18.6945 179.337 19.4247 180.152 20.366 180.638C21.3072 181.124 22.3939 181.248 23.4202 180.986C24.4465 180.724 25.3412 180.094 25.9346 179.216H25.9346Z" fill="#A0616A"/>
<path d="M18.3864 168.818L18.0385 168.817C17.4652 168.813 16.9143 168.593 16.4956 168.201C16.0769 167.809 15.8211 167.273 15.7792 166.701C15.2107 159.375 13.4648 134.42 14.8709 120.891C15.0571 119.628 15.4948 118.416 16.1578 117.326C16.8209 116.235 17.6958 115.289 18.7309 114.544C19.7659 113.798 20.94 113.268 22.1835 112.985C23.427 112.702 24.7147 112.671 25.9702 112.895L26.3321 112.975L26.3294 113.347C26.2005 131.147 26.2088 148.844 26.2169 165.958C26.2182 166.481 26.0413 166.988 25.7154 167.397C25.3895 167.805 24.9342 168.09 24.4247 168.204C22.4383 168.615 20.4149 168.821 18.3864 168.818Z" fill="#56BAE4"/>
<path d="M31.8802 190.167C30.3628 190.161 28.9 189.6 27.7659 188.592C26.6318 187.583 25.9044 186.195 25.72 184.687L26.2192 143.605L18.0599 122.951C17.7166 120.238 18.2997 117.488 19.7147 115.148C21.1297 112.809 23.2935 111.016 25.8546 110.062L28.0359 109.243C28.4481 109.089 28.8867 109.017 29.3266 109.032C29.7665 109.048 30.1991 109.15 30.5994 109.333C30.9998 109.516 31.3601 109.777 31.6597 110.099C31.9592 110.422 32.1921 110.801 32.3451 111.214L40.7585 133.947L40.7606 133.98C41.344 143.028 43.977 188.06 38.7272 189.403C36.5028 189.925 34.2245 190.181 31.9398 190.167L31.8802 190.167Z" fill="#56BAE4"/>
<path d="M80.3505 163.706C79.7675 163.469 79.2435 163.107 78.8153 162.646C78.3871 162.185 78.0652 161.635 77.8722 161.036C77.6792 160.437 77.6199 159.802 77.6984 159.178C77.7769 158.553 77.9912 157.953 78.3264 157.42L72.6475 149.386L76.6846 144.741L84.5451 156.2C85.4022 156.823 86.0012 157.739 86.2286 158.774C86.456 159.81 86.296 160.892 85.779 161.818C85.2619 162.743 84.4237 163.446 83.4233 163.794C82.4228 164.142 81.3295 164.11 80.3505 163.706H80.3505Z" fill="#A0616A"/>
<path d="M74.6796 153.38C74.383 153.371 74.0929 153.291 73.8336 153.147C73.5744 153.002 73.3536 152.798 73.1899 152.55L73.16 152.505C63.7634 138.272 54.047 123.554 44.1993 108.883L44.0933 108.724L44.2288 108.591C45.0925 107.784 46.1104 107.16 47.2212 106.757C48.3319 106.354 49.5127 106.18 50.6924 106.245C51.907 106.267 53.1032 106.545 54.2029 107.062C55.3027 107.578 56.2813 108.321 57.0748 109.241C65.6804 119.72 77.9622 141.468 81.5213 147.884C81.746 148.283 81.8125 148.751 81.7075 149.197C81.6026 149.642 81.334 150.031 80.9551 150.287C79.2075 151.478 77.3354 152.474 75.3721 153.259C75.1518 153.346 74.9162 153.387 74.6796 153.38Z" fill="#56BAE4"/>
<path d="M71.5251 181.011C65.8968 181.014 45.7592 142.21 41.7795 134.431L41.7451 134.337L37.3427 110.533C37.2626 110.1 37.2687 109.656 37.3608 109.225C37.4529 108.794 37.629 108.386 37.8792 108.023C38.1294 107.661 38.4486 107.351 38.8186 107.113C39.1885 106.874 39.602 106.711 40.0351 106.633L42.328 106.218C45.016 105.725 47.7916 106.155 50.2043 107.44C52.6169 108.724 54.5249 110.787 55.6184 113.294L61.3709 137.492L80.606 170.198C81.2377 171.599 81.3305 173.184 80.8667 174.65C80.4029 176.115 79.4151 177.358 78.0925 178.139C76.1374 179.323 74.0492 180.27 71.8714 180.962C71.7589 180.995 71.6423 181.011 71.5251 181.011H71.5251Z" fill="#56BAE4"/>
<path d="M40.9821 92.8125H18.2651V90.0569C18.2686 87.0127 19.4784 84.0942 21.6293 81.9417C23.7802 79.7892 26.6965 78.5784 29.7383 78.575H31.5741C34.6159 78.5784 37.5322 79.7892 39.6831 81.9417C41.834 84.0942 43.0438 87.0127 43.0473 90.0569V90.7458C43.0467 91.2937 42.8289 91.8191 42.4417 92.2065C42.0546 92.594 41.5296 92.8119 40.9821 92.8125Z" fill="#2F2E41"/>
</g>
<defs>
<clipPath id="clip0">
<rect width="340" height="235" fill="white"/>
</clipPath>
</defs>
</svg>
