<svg width="430" height="425" viewBox="0 0 430 425" fill="none" xmlns="http://www.w3.org/2000/svg">
<path d="M424.387 128H306.613C306.451 128 306.295 127.947 306.18 127.854C306.065 127.76 306 127.633 306 127.5C306 127.367 306.065 127.24 306.18 127.146C306.295 127.053 306.451 127 306.613 127H424.387C424.549 127 424.705 127.053 424.82 127.146C424.935 127.24 425 127.367 425 127.5C425 127.633 424.935 127.76 424.82 127.854C424.705 127.947 424.549 128 424.387 128Z" fill="#CCCCCC"/>
<path fill-rule="evenodd" clip-rule="evenodd" d="M309.249 0H307.624C306.815 0 306.133 0.735978 306.098 1.63184C306.098 1.63184 305.13 28.5714 304.101 29.7143C303.071 30.8571 295.864 33.1429 293.805 36.5714C291.746 40 291.75 43.6531 290.716 44.5714C285.568 49.1429 239.56 48 242.649 65.1429C243.831 71.7072 279.368 75.7805 288.657 83.4286C295.017 88.6651 295.34 93.3198 296.894 100.571C301.271 121.008 297.923 205.714 294.834 251.429C291.746 297.143 279.39 408 279.39 408H309.249H339.107C339.107 408 326.752 297.143 323.663 251.429C320.574 205.714 317.227 121.008 321.604 100.571C323.157 93.3198 323.481 88.6651 329.841 83.4286C339.13 75.7805 373.164 71.7072 374.347 65.1429C377.435 48 332.929 49.1429 327.781 44.5714C326.747 43.6531 326.752 40 324.693 36.5714C322.634 33.1429 315.426 30.8571 314.397 29.7143C313.367 28.5714 312.399 1.63184 312.399 1.63184C312.365 0.735978 311.682 0 310.874 0H309.249Z" fill="#56BAE4"/>
<ellipse cx="284.697" cy="222.047" rx="120.197" ry="120.047" fill="#DDF1FA"/>
<path d="M181.017 387.172H112.167C112.072 387.172 111.98 387.131 111.913 387.059C111.846 386.986 111.808 386.888 111.808 386.786C111.808 386.683 111.846 386.585 111.913 386.513C111.98 386.44 112.072 386.4 112.167 386.4H181.017C181.112 386.4 181.203 386.44 181.271 386.513C181.338 386.585 181.376 386.683 181.376 386.786C181.376 386.888 181.338 386.986 181.271 387.059C181.203 387.131 181.112 387.172 181.017 387.172Z" fill="#CCCCCC"/>
<path d="M196.387 161H78.6134C78.4507 161 78.2947 160.947 78.1797 160.854C78.0646 160.76 78 160.633 78 160.5C78 160.367 78.0646 160.24 78.1797 160.146C78.2947 160.053 78.4507 160 78.6134 160H196.387C196.549 160 196.705 160.053 196.82 160.146C196.935 160.24 197 160.367 197 160.5C197 160.633 196.935 160.76 196.82 160.854C196.705 160.947 196.549 161 196.387 161Z" fill="#CCCCCC"/>
<path d="M254.889 182.756C257.619 188.593 251.834 190.246 245.207 193.374C238.58 196.503 233.621 199.921 230.891 194.085C228.16 188.248 225.945 176.664 235.32 172.239C245.018 167.661 252.159 176.92 254.889 182.756Z" fill="#2F2E41"/>
<path d="M241.281 194.169C246.19 194.169 250.17 190.194 250.17 185.291C250.17 180.388 246.19 176.413 241.281 176.413C236.372 176.413 232.392 180.388 232.392 185.291C232.392 190.194 236.372 194.169 241.281 194.169Z" fill="#FFB8B8"/>
<path d="M285.223 224.451C284.911 224.046 284.599 223.648 284.284 223.261C283.877 222.758 283.467 222.27 283.055 221.799C278.386 216.44 273.42 213.066 267.952 212.705H267.944L267.863 212.698L256.967 223.261L253.262 226.851L253.343 227.048L255.342 231.998H290.365C288.787 229.393 287.07 226.874 285.223 224.451Z" fill="#2F2E41"/>
<path d="M231.728 188.765L234.871 187.3L234.434 182.802L236.535 186.524L238.037 185.824L237.782 183.2L239.008 185.372L250.17 180.168C249.122 177.955 247.23 176.245 244.911 175.416C242.592 174.586 240.036 174.704 237.805 175.745L236.188 176.499C233.957 177.539 232.233 179.415 231.397 181.716C230.561 184.016 230.68 186.552 231.728 188.765Z" fill="#2F2E41"/>
<path d="M304.527 348.571H120.062C118.488 348.569 116.98 347.947 115.867 346.841C114.755 345.734 114.129 344.235 114.127 342.67V232.461C114.128 231.315 114.587 230.216 115.402 229.405C116.217 228.595 117.322 228.139 118.475 228.138H306.039C307.212 228.139 308.336 228.603 309.165 229.427C309.994 230.252 310.461 231.37 310.462 232.536V342.67C310.46 344.235 309.834 345.734 308.722 346.841C307.609 347.947 306.101 348.569 304.527 348.571Z" fill="#F2F2F2"/>
<path d="M126.074 343.167H299.288C300.816 343.167 302.282 342.56 303.363 341.479C304.444 340.397 305.051 338.931 305.051 337.402V243.167C305.051 241.638 304.444 240.171 303.363 239.09C302.282 238.009 300.816 237.402 299.288 237.402H126.074C124.546 237.402 123.08 238.009 121.999 239.09C120.918 240.171 120.311 241.638 120.311 243.167V337.402C120.311 338.931 120.918 340.397 121.999 341.479C123.08 342.56 124.546 343.167 126.074 343.167Z" fill="white"/>
<path d="M310.462 231.998H114.127V228.879C114.129 227.249 114.758 225.687 115.874 224.535C116.991 223.383 118.505 222.735 120.083 222.734H304.506C306.084 222.735 307.598 223.383 308.715 224.535C309.831 225.687 310.46 227.249 310.462 228.879V231.998Z" fill="#56BAE4"/>
<path d="M124.949 228.91C125.803 228.91 126.495 228.218 126.495 227.366C126.495 226.513 125.803 225.822 124.949 225.822C124.095 225.822 123.403 226.513 123.403 227.366C123.403 228.218 124.095 228.91 124.949 228.91Z" fill="white"/>
<path d="M131.132 228.91C131.986 228.91 132.678 228.218 132.678 227.366C132.678 226.513 131.986 225.822 131.132 225.822C130.279 225.822 129.586 226.513 129.586 227.366C129.586 228.218 130.279 228.91 131.132 228.91Z" fill="white"/>
<path d="M136.543 228.91C137.397 228.91 138.089 228.218 138.089 227.366C138.089 226.513 137.397 225.822 136.543 225.822C135.689 225.822 134.997 226.513 134.997 227.366C134.997 228.218 135.689 228.91 136.543 228.91Z" fill="white"/>
<path d="M218.136 322.323H202.589C201.678 322.322 200.805 321.973 200.161 321.352C199.517 320.731 199.155 319.889 199.154 319.011V304.019C199.155 303.141 199.517 302.299 200.161 301.678C200.805 301.057 201.678 300.708 202.589 300.707H218.136C219.046 300.708 219.919 301.057 220.563 301.678C221.207 302.299 221.569 303.141 221.57 304.019V319.011C221.569 319.889 221.207 320.731 220.563 321.352C219.919 321.973 219.046 322.322 218.136 322.323ZM202.589 301.404C201.87 301.405 201.181 301.68 200.672 302.171C200.164 302.661 199.878 303.325 199.877 304.019V319.011C199.878 319.704 200.164 320.369 200.672 320.859C201.181 321.349 201.87 321.625 202.589 321.625H218.136C218.854 321.625 219.544 321.349 220.052 320.859C220.56 320.369 220.846 319.704 220.847 319.011V304.019C220.846 303.325 220.56 302.661 220.052 302.171C219.544 301.68 218.854 301.405 218.136 301.404H202.589Z" fill="#CCCCCC"/>
<path d="M215.073 318.463H205.652C205.364 318.462 205.087 318.347 204.884 318.141C204.68 317.935 204.565 317.657 204.565 317.366V305.664C204.565 305.373 204.68 305.094 204.884 304.888C205.087 304.683 205.364 304.567 205.652 304.567H212.478C212.726 304.567 212.966 304.652 213.159 304.809L215.753 306.913C215.88 307.015 215.983 307.145 216.053 307.293C216.124 307.441 216.16 307.604 216.16 307.768V317.366C216.159 317.657 216.045 317.935 215.841 318.141C215.637 318.347 215.361 318.462 215.073 318.463ZM205.652 305.298C205.556 305.298 205.464 305.337 205.396 305.405C205.328 305.474 205.29 305.567 205.29 305.664V317.366C205.29 317.463 205.328 317.556 205.396 317.624C205.464 317.693 205.556 317.731 205.652 317.731H215.073C215.169 317.731 215.261 317.693 215.329 317.624C215.397 317.556 215.435 317.463 215.435 317.366V307.768C215.435 307.713 215.423 307.659 215.399 307.61C215.376 307.56 215.342 307.517 215.3 307.483L212.705 305.378C212.64 305.326 212.56 305.298 212.478 305.298H205.652Z" fill="#CCCCCC"/>
<path d="M212.724 309.971H207.227C207.136 309.971 207.049 309.93 206.984 309.858C206.92 309.785 206.884 309.687 206.884 309.585C206.884 309.482 206.92 309.384 206.984 309.312C207.049 309.239 207.136 309.199 207.227 309.199H212.724C212.815 309.199 212.903 309.239 212.967 309.312C213.031 309.384 213.068 309.482 213.068 309.585C213.068 309.687 213.031 309.785 212.967 309.858C212.903 309.93 212.815 309.971 212.724 309.971Z" fill="#CCCCCC"/>
<path d="M212.724 313.831H207.227C207.136 313.831 207.049 313.79 206.984 313.718C206.92 313.645 206.884 313.547 206.884 313.445C206.884 313.342 206.92 313.244 206.984 313.172C207.049 313.099 207.136 313.059 207.227 313.059H212.724C212.815 313.059 212.903 313.099 212.967 313.172C213.031 313.244 213.068 313.342 213.068 313.445C213.068 313.547 213.031 313.645 212.967 313.718C212.903 313.79 212.815 313.831 212.724 313.831Z" fill="#CCCCCC"/>
<path d="M254.465 322.323H238.919C238.008 322.322 237.135 321.973 236.491 321.352C235.847 320.731 235.485 319.889 235.484 319.011V304.019C235.485 303.141 235.847 302.299 236.491 301.678C237.135 301.057 238.008 300.708 238.919 300.707H254.465C255.376 300.708 256.249 301.057 256.893 301.678C257.537 302.299 257.899 303.141 257.9 304.019V319.011C257.899 319.889 257.537 320.731 256.893 321.352C256.249 321.973 255.376 322.322 254.465 322.323ZM238.919 301.404C238.2 301.405 237.51 301.68 237.002 302.171C236.494 302.661 236.208 303.325 236.207 304.019V319.011C236.208 319.704 236.494 320.369 237.002 320.859C237.51 321.349 238.2 321.625 238.919 321.625H254.465C255.184 321.625 255.874 321.349 256.382 320.859C256.89 320.369 257.176 319.704 257.177 319.011V304.019C257.176 303.325 256.89 302.661 256.382 302.171C255.874 301.68 255.184 301.405 254.465 301.404H238.919Z" fill="#CCCCCC"/>
<path d="M252.171 315.375H241.986C241.696 315.374 241.419 315.263 241.215 315.066C241.01 314.869 240.895 314.601 240.895 314.322V308.707C240.895 308.428 241.01 308.161 241.215 307.963C241.419 307.766 241.696 307.655 241.986 307.655H252.171C252.46 307.655 252.738 307.766 252.942 307.963C253.147 308.161 253.262 308.428 253.262 308.707V314.322C253.262 314.601 253.147 314.869 252.942 315.066C252.738 315.263 252.46 315.374 252.171 315.375ZM241.986 308.356C241.889 308.357 241.797 308.394 241.729 308.459C241.66 308.525 241.622 308.614 241.622 308.707V314.322C241.622 314.415 241.66 314.504 241.729 314.57C241.797 314.636 241.889 314.673 241.986 314.673H252.171C252.267 314.673 252.36 314.636 252.428 314.57C252.496 314.504 252.535 314.415 252.535 314.322V308.707C252.535 308.614 252.496 308.525 252.428 308.459C252.36 308.394 252.267 308.357 252.171 308.356H241.986Z" fill="#CCCCCC"/>
<path d="M247.078 312.287C246.874 312.287 246.674 312.235 246.5 312.137L241.065 309.039C240.983 308.993 240.925 308.918 240.904 308.833C240.882 308.747 240.899 308.657 240.95 308.583C241.001 308.508 241.082 308.455 241.176 308.435C241.27 308.415 241.369 308.43 241.451 308.477L246.886 311.574C246.944 311.607 247.01 311.624 247.079 311.624C247.147 311.624 247.213 311.607 247.271 311.574L252.706 308.477C252.788 308.43 252.886 308.415 252.98 308.435C253.074 308.455 253.156 308.508 253.207 308.583C253.258 308.657 253.274 308.747 253.253 308.833C253.231 308.918 253.173 308.993 253.092 309.039L247.657 312.137C247.483 312.235 247.283 312.287 247.078 312.287Z" fill="#CCCCCC"/>
<path d="M181.033 322.323H165.486C164.575 322.322 163.702 321.973 163.058 321.352C162.415 320.731 162.052 319.889 162.051 319.011V304.019C162.052 303.141 162.415 302.299 163.058 301.678C163.702 301.057 164.575 300.708 165.486 300.707H181.033C181.943 300.708 182.816 301.057 183.46 301.678C184.104 302.299 184.466 303.141 184.467 304.019V319.011C184.466 319.889 184.104 320.731 183.46 321.352C182.816 321.973 181.943 322.322 181.033 322.323ZM165.486 301.404C164.767 301.405 164.078 301.68 163.569 302.171C163.061 302.661 162.775 303.325 162.774 304.019V319.011C162.775 319.704 163.061 320.369 163.569 320.859C164.078 321.349 164.767 321.625 165.486 321.625H181.033C181.752 321.625 182.441 321.349 182.949 320.859C183.458 320.369 183.744 319.704 183.744 319.011V304.019C183.744 303.325 183.458 302.661 182.949 302.171C182.441 301.68 181.752 301.405 181.033 301.404H165.486Z" fill="#CCCCCC"/>
<path d="M178.738 315.375H168.553C168.264 315.374 167.987 315.263 167.782 315.066C167.578 314.869 167.462 314.601 167.462 314.322V308.707C167.462 308.428 167.578 308.161 167.782 307.963C167.987 307.766 168.264 307.655 168.553 307.655H178.738C179.028 307.655 179.305 307.766 179.51 307.963C179.714 308.161 179.829 308.428 179.83 308.707V314.322C179.829 314.601 179.714 314.869 179.51 315.066C179.305 315.263 179.028 315.374 178.738 315.375ZM168.553 308.356C168.457 308.357 168.365 308.394 168.296 308.459C168.228 308.525 168.19 308.614 168.19 308.707V314.322C168.19 314.415 168.228 314.504 168.296 314.57C168.365 314.636 168.457 314.673 168.553 314.673H178.738C178.835 314.673 178.927 314.636 178.996 314.57C179.064 314.504 179.102 314.415 179.102 314.322V308.707C179.102 308.614 179.064 308.525 178.996 308.459C178.927 308.394 178.835 308.357 178.738 308.356H168.553Z" fill="#CCCCCC"/>
<path d="M176.806 315.375H169.713C169.589 315.375 169.468 315.34 169.361 315.275C169.253 315.21 169.164 315.115 169.102 315.002C169.041 314.889 169.008 314.76 169.008 314.629C169.008 314.498 169.041 314.37 169.103 314.257L171.239 310.343C171.301 310.23 171.39 310.136 171.497 310.071C171.604 310.005 171.726 309.971 171.849 309.971C171.973 309.971 172.095 310.005 172.202 310.071C172.309 310.136 172.398 310.23 172.46 310.343L173.84 312.871L174.639 311.406C174.701 311.293 174.79 311.199 174.897 311.134C175.004 311.068 175.126 311.034 175.25 311.034C175.373 311.034 175.495 311.068 175.602 311.134C175.709 311.199 175.798 311.293 175.86 311.406L177.416 314.257C177.478 314.37 177.511 314.499 177.511 314.629C177.511 314.76 177.478 314.889 177.416 315.002C177.354 315.115 177.265 315.209 177.158 315.275C177.051 315.34 176.929 315.375 176.806 315.375H176.806ZM176.806 314.629L175.25 311.779L174.145 313.802C174.114 313.859 174.07 313.906 174.016 313.939C173.963 313.972 173.902 313.989 173.84 313.989C173.778 313.989 173.717 313.972 173.664 313.939C173.61 313.906 173.566 313.859 173.535 313.802L171.85 310.716L169.713 314.629H176.806Z" fill="#CCCCCC"/>
<path d="M177.511 310.743C177.938 310.743 178.284 310.397 178.284 309.971C178.284 309.544 177.938 309.199 177.511 309.199C177.084 309.199 176.738 309.544 176.738 309.971C176.738 310.397 177.084 310.743 177.511 310.743Z" fill="#CCCCCC"/>
<path d="M349.11 404.156L344.92 404.155L342.927 387.172L349.111 387.172L349.11 404.156Z" fill="#FFB8B8"/>
<path d="M350.656 408.016L336.743 408.015V407.845C336.743 407.158 336.883 406.477 337.155 405.842C337.428 405.208 337.826 404.631 338.329 404.145C338.832 403.659 339.429 403.273 340.086 403.01C340.743 402.747 341.447 402.612 342.159 402.612H342.159L350.657 402.612L350.656 408.016Z" fill="#2F2E41"/>
<path d="M367.662 404.156L362.948 404.155L360.706 387.172L367.662 387.172L367.662 404.156Z" fill="#FFB8B8"/>
<path d="M368.435 408.016L354.521 408.015V407.845C354.521 407.158 354.662 406.477 354.934 405.842C355.206 405.208 355.605 404.631 356.108 404.145C356.61 403.659 357.207 403.273 357.865 403.01C358.522 402.747 359.226 402.612 359.937 402.612H359.937L368.435 402.612L368.435 408.016Z" fill="#2F2E41"/>
<path d="M366.313 396.366L362.235 395.135C361.931 395.043 361.661 394.865 361.459 394.622C361.256 394.379 361.131 394.082 361.098 393.769L357.296 358.012C357.293 357.969 357.273 357.928 357.241 357.899C357.209 357.869 357.167 357.853 357.124 357.853C357.08 357.849 357.036 357.862 357.002 357.889C356.968 357.916 356.946 357.955 356.94 357.999L350.572 392.641C350.533 392.851 350.453 393.051 350.335 393.23C350.217 393.409 350.064 393.563 349.886 393.682C349.707 393.802 349.507 393.885 349.296 393.926C349.084 393.967 348.867 393.967 348.656 393.923L343.444 392.858C343.062 392.779 342.721 392.565 342.485 392.257C342.248 391.948 342.132 391.565 342.157 391.179L346.031 334.399L372.3 331.587L368.397 394.929C368.371 395.336 368.191 395.719 367.892 395.998C367.592 396.278 367.197 396.435 366.786 396.436C366.626 396.436 366.466 396.412 366.313 396.366Z" fill="#2F2E41"/>
<path d="M366.116 284.494C370.812 284.494 374.619 280.52 374.619 275.616C374.619 270.713 370.812 266.738 366.116 266.738C361.42 266.738 357.614 270.713 357.614 275.616C357.614 280.52 361.42 284.494 366.116 284.494Z" fill="#FFB8B8"/>
<path d="M346.019 334.667L351.669 298.988C351.97 297.091 352.669 295.28 353.722 293.675C354.775 292.07 356.156 290.709 357.774 289.681C359.392 288.654 361.21 287.983 363.106 287.715C365.003 287.447 366.934 287.587 368.773 288.125C371.987 289.058 374.739 291.158 376.492 294.017C378.244 296.875 378.871 300.286 378.25 303.584L372.339 335.447L346.019 334.667Z" fill="#56BAE4"/>
<path d="M368.769 341.001C369.217 340.706 369.594 340.317 369.875 339.861C370.156 339.405 370.332 338.893 370.393 338.361C370.454 337.829 370.397 337.291 370.227 336.783C370.056 336.276 369.776 335.812 369.407 335.424L375.392 323.867L368.651 324.584L364.001 335.449C363.389 336.112 363.041 336.975 363.025 337.876C363.009 338.777 363.324 339.652 363.912 340.337C364.5 341.021 365.319 341.466 366.214 341.589C367.109 341.711 368.018 341.502 368.769 341.001V341.001Z" fill="#FFB8B8"/>
<path d="M369.76 333.115C369.434 333.07 369.13 332.927 368.888 332.706L366.635 330.648C366.391 330.424 366.223 330.132 366.153 329.811C366.083 329.49 366.114 329.156 366.242 328.853L370.746 318.298L370.107 297.444C370.199 296.773 370.424 296.128 370.768 295.543C371.113 294.958 371.57 294.447 372.115 294.037C372.66 293.628 373.28 293.328 373.942 293.156C374.604 292.984 375.294 292.942 375.972 293.034C376.65 293.125 377.303 293.348 377.894 293.689C378.484 294.03 379.002 294.483 379.415 295.022C379.829 295.561 380.131 296.175 380.305 296.829C380.479 297.484 380.52 298.165 380.427 298.836L381.519 311.945C381.851 315.924 380.71 319.886 378.309 323.096L371.285 332.483C371.15 332.664 370.978 332.814 370.78 332.924C370.582 333.035 370.363 333.103 370.137 333.124C370.011 333.136 369.885 333.133 369.76 333.115Z" fill="#56BAE4"/>
<path d="M315.167 270.876C315.266 271.374 315.481 271.845 315.796 272.257C316.112 272.67 316.521 273.012 316.994 273.261C317.467 273.51 317.992 273.659 318.534 273.698C319.076 273.737 319.62 273.665 320.128 273.487L328.57 282.95L330.56 276.83L322.238 268.782C321.86 268.006 321.19 267.385 320.355 267.039C319.519 266.692 318.576 266.644 317.705 266.902C316.833 267.16 316.093 267.707 315.626 268.439C315.158 269.172 314.995 270.039 315.167 270.876Z" fill="#FFB8B8"/>
<path d="M321.517 274.971C321.688 274.688 321.943 274.463 322.247 274.327L325.078 273.057C325.385 272.92 325.727 272.881 326.058 272.943C326.388 273.005 326.691 273.167 326.926 273.406L335.104 281.755L355.028 289.428C355.624 289.779 356.145 290.242 356.561 290.793C356.976 291.343 357.278 291.969 357.45 292.636C357.621 293.302 357.658 293.995 357.56 294.676C357.461 295.357 357.228 296.011 356.874 296.603C356.52 297.194 356.052 297.71 355.496 298.122C354.941 298.533 354.31 298.832 353.638 299.001C352.966 299.171 352.267 299.207 351.581 299.108C350.896 299.009 350.236 298.777 349.641 298.425L336.843 294.241C332.959 292.972 329.672 290.346 327.593 286.852L321.511 276.633C321.394 276.436 321.32 276.217 321.294 275.991C321.268 275.764 321.291 275.534 321.36 275.317C321.398 275.196 321.451 275.08 321.517 274.971Z" fill="#56BAE4"/>
<path opacity="0.1" d="M373.073 306.111L372.715 317.689L366.116 329.271L371.626 316.364L373.073 306.111Z" fill="black"/>
<path d="M364.914 277.197C364.361 277.27 363.802 277.137 363.338 276.822C362.875 276.506 362.54 276.031 362.396 275.483C362.256 274.853 361.951 274.273 361.512 273.806C361.074 273.339 360.519 273.002 359.906 272.832C358.293 272.457 356.32 273.23 355.138 271.985C354.885 271.701 354.702 271.36 354.603 270.99C354.505 270.62 354.495 270.231 354.574 269.856C354.791 268.647 355.641 267.733 356.566 267.003C358.513 265.472 360.868 264.576 363.323 264.432C364.594 264.395 365.866 264.459 367.127 264.625C368.448 264.71 369.754 264.953 371.018 265.349C372.459 265.902 373.739 266.816 374.741 268.006C375.743 269.196 376.434 270.624 376.75 272.158C377.039 273.696 376.994 275.281 376.619 276.8C376.245 278.319 375.549 279.737 374.58 280.954C373.42 282.424 371.925 283.582 370.225 284.329C369.82 284.523 369.355 284.547 368.933 284.396C367.874 283.967 368.047 282.632 368.53 281.741C369.047 280.788 369.842 279.865 369.426 278.705C369.218 278.167 368.818 277.729 368.306 277.478C367.253 276.931 366.076 277.061 364.944 277.194L364.914 277.197Z" fill="#2F2E41"/>
<path d="M312.25 282.178H202.777C201.202 282.177 199.691 281.546 198.577 280.425C197.464 279.304 196.837 277.784 196.835 276.199V252.645C196.837 251.06 197.464 249.54 198.577 248.419C199.691 247.298 201.202 246.668 202.777 246.666H312.25C313.825 246.668 315.336 247.298 316.45 248.419C317.564 249.54 318.19 251.06 318.192 252.645V276.199C318.19 277.784 317.564 279.304 316.45 280.425C315.336 281.546 313.825 282.176 312.25 282.178Z" fill="white"/>
<path d="M312.088 282.178H202.939C201.321 282.176 199.769 281.533 198.625 280.39C197.481 279.247 196.837 277.697 196.835 276.08V252.764C196.837 251.147 197.481 249.597 198.625 248.454C199.769 247.311 201.321 246.668 202.939 246.666H312.088C313.706 246.668 315.258 247.311 316.402 248.454C317.546 249.597 318.19 251.147 318.192 252.764V276.08C318.19 277.697 317.546 279.247 316.402 280.39C315.258 281.533 313.706 282.176 312.088 282.178ZM202.939 247.383C201.511 247.385 200.142 247.952 199.133 248.961C198.123 249.97 197.555 251.337 197.553 252.764V276.08C197.555 277.507 198.123 278.874 199.133 279.883C200.142 280.892 201.511 281.459 202.939 281.461H312.088C313.516 281.459 314.885 280.892 315.895 279.883C316.904 278.874 317.472 277.507 317.474 276.08V252.764C317.472 251.337 316.904 249.97 315.895 248.961C314.885 247.952 313.516 247.385 312.088 247.383H202.939Z" fill="#3F3D56"/>
<path d="M299.086 276.774H215.94C214.359 276.772 212.843 276.131 211.725 274.99C210.606 273.85 209.977 272.303 209.976 270.69V258.154C209.977 256.541 210.606 254.994 211.725 253.854C212.843 252.713 214.359 252.072 215.94 252.07H299.086C300.668 252.072 302.184 252.713 303.302 253.854C304.42 254.994 305.049 256.541 305.051 258.154V270.69C305.049 272.303 304.42 273.85 303.302 274.99C302.184 276.131 300.668 276.772 299.086 276.774Z" fill="#F2F2F2"/>
<path d="M233.938 269.826C237.78 269.826 240.894 266.715 240.894 262.878C240.894 259.041 237.78 255.93 233.938 255.93C230.096 255.93 226.981 259.041 226.981 262.878C226.981 266.715 230.096 269.826 233.938 269.826Z" fill="#FF6584"/>
<path d="M294.101 276.042L284.089 267.45L274.25 259.007C273.99 258.785 273.662 258.663 273.323 258.664C272.984 258.664 272.656 258.787 272.397 259.011L262.59 267.493L260.194 269.565L256.582 266.465L245.605 257.046C245.346 256.823 245.017 256.701 244.678 256.702C244.34 256.703 244.012 256.826 243.753 257.05L232.812 266.512L221.698 276.124C221.641 276.172 221.601 276.238 221.582 276.31C221.563 276.383 221.567 276.46 221.592 276.531C221.618 276.602 221.664 276.663 221.724 276.706C221.785 276.749 221.857 276.772 221.931 276.772L244.716 276.727L251.929 276.713L251.858 276.774L273.357 276.732L293.871 276.691C293.945 276.691 294.017 276.668 294.077 276.625C294.137 276.581 294.183 276.52 294.208 276.449C294.233 276.378 294.237 276.301 294.217 276.228C294.198 276.155 294.158 276.09 294.101 276.042Z" fill="#3F3D56"/>
<path d="M429.141 423.456H360.291C360.196 423.456 360.105 423.415 360.037 423.343C359.97 423.27 359.932 423.172 359.932 423.07C359.932 422.968 359.97 422.869 360.037 422.797C360.105 422.725 360.196 422.684 360.291 422.684H429.141C429.236 422.684 429.328 422.725 429.395 422.797C429.462 422.869 429.5 422.968 429.5 423.07C429.5 423.172 429.462 423.27 429.395 423.343C429.328 423.415 429.236 423.456 429.141 423.456Z" fill="#CCCCCC"/>
<path d="M290.52 218.77C290.231 218.298 289.848 217.891 289.396 217.572C288.945 217.253 288.433 217.03 287.892 216.916C287.694 216.874 287.493 216.849 287.29 216.84L259.67 192.077C259.127 191.518 258.404 191.171 257.629 191.099C257.476 191.082 257.322 191.077 257.169 191.085C256.531 191.114 255.916 191.329 255.399 191.702C254.881 192.076 254.484 192.593 254.254 193.19C254.025 193.787 253.974 194.438 254.108 195.064C254.242 195.689 254.555 196.262 255.008 196.712L265.583 205.956L282.947 221.133C282.961 221.419 283.004 221.702 283.074 221.98C283.282 222.784 283.729 223.505 284.355 224.048C284.981 224.592 285.757 224.931 286.58 225.022C287.33 225.11 288.09 224.984 288.773 224.659C289.314 224.405 289.794 224.037 290.179 223.579C290.219 223.532 290.256 223.488 290.292 223.438C290.799 222.775 291.092 221.973 291.133 221.14C291.174 220.306 290.96 219.479 290.52 218.77H290.52Z" fill="#FFB8B8"/>
<path d="M243.468 241.985L243.219 231.711L243.009 223.185L242.866 217.218L242.582 205.588C242.526 204.965 242.293 204.373 241.911 203.882C241.529 203.392 241.016 203.026 240.432 202.827C239.849 202.629 239.222 202.608 238.627 202.766C238.032 202.925 237.496 203.256 237.083 203.719C236.985 203.825 236.898 203.939 236.82 204.061C236.389 204.688 236.195 205.453 236.274 206.214L236.897 223.185L237.209 231.711L237.608 242.586C237.493 242.746 237.389 242.914 237.296 243.088C237.047 243.568 236.897 244.095 236.854 244.636C236.811 245.177 236.877 245.721 237.048 246.235C237.226 246.775 237.514 247.27 237.893 247.687C238.273 248.105 238.735 248.437 239.25 248.66C239.764 248.883 240.32 248.992 240.879 248.981C241.438 248.97 241.989 248.839 242.495 248.596C243.082 248.313 243.592 247.888 243.979 247.357C244.367 246.827 244.62 246.208 244.716 245.554C244.812 244.901 244.749 244.233 244.531 243.611C244.313 242.988 243.948 242.43 243.468 241.985H243.468Z" fill="#FFB8B8"/>
<path d="M268.304 213.039L265.737 206.112L261.584 194.893C261.284 194.077 260.804 193.338 260.178 192.732C259.553 192.126 258.798 191.668 257.971 191.392C257.906 191.37 257.837 191.349 257.771 191.33C256.97 191.088 256.125 191.021 255.296 191.135C254.466 191.249 253.67 191.54 252.964 191.989L238.975 200.828C237.694 201.636 236.778 202.908 236.421 204.376C236.064 205.844 236.294 207.392 237.062 208.695C238.811 211.708 240.718 214.629 242.773 217.444C244.403 219.654 247.438 219.889 247.965 223.506H258.28L268.722 214.167L268.304 213.039Z" fill="#CCCCCC"/>
<path d="M109.489 296.846C114.185 296.846 117.992 293.044 117.992 288.354C117.992 283.664 114.185 279.862 109.489 279.862C104.793 279.862 100.986 283.664 100.986 288.354C100.986 293.044 104.793 296.846 109.489 296.846Z" fill="#A0616A"/>
<path d="M129.699 282.98C129.782 283.045 129.863 283.114 129.941 283.186C130.33 283.544 130.637 283.978 130.842 284.46C131.047 284.942 131.146 285.46 131.131 285.982C131.117 286.503 130.99 287.016 130.758 287.486C130.527 287.957 130.197 288.374 129.789 288.711C129.694 288.789 129.595 288.862 129.492 288.93L130.064 307.821C130.081 308.44 129.893 309.047 129.528 309.552C129.163 310.058 128.641 310.435 128.04 310.628L128.005 310.635L112.309 312.269C111.882 312.313 111.451 312.275 111.039 312.155C110.628 312.035 110.245 311.838 109.912 311.573C109.58 311.308 109.304 310.981 109.101 310.611C108.899 310.241 108.773 309.836 108.732 309.419C108.69 309.001 108.734 308.58 108.86 308.179C108.986 307.778 109.192 307.406 109.466 307.083C109.74 306.761 110.077 306.494 110.457 306.3C110.837 306.105 111.253 305.986 111.68 305.949L122.869 304.986L124.804 288.626C124.677 288.516 124.559 288.398 124.449 288.272C123.843 287.571 123.524 286.674 123.556 285.756C123.589 284.838 123.969 283.964 124.623 283.304C125.277 282.645 126.159 282.246 127.097 282.186C128.035 282.126 128.962 282.409 129.699 282.98H129.699Z" fill="#A0616A"/>
<path d="M123.403 404.156H127.07L128.814 388.716H123.403L123.403 404.156Z" fill="#A0616A"/>
<path d="M121.857 403.384L130.354 403.384H130.355C131.066 403.384 131.77 403.519 132.427 403.782C133.084 404.045 133.681 404.431 134.184 404.917C134.687 405.403 135.086 405.98 135.358 406.614C135.63 407.249 135.77 407.93 135.77 408.617V408.787L121.857 408.788L121.857 403.384Z" fill="#2F2E41"/>
<path d="M81.6621 398.9L85.1454 401.068L94.8026 388.055L89.6615 384.856L81.6621 398.9Z" fill="#A0616A"/>
<path d="M81.3326 397.208L88.3835 401.43L88.3838 401.43C88.9739 401.784 89.489 402.251 89.8997 402.804C90.3104 403.358 90.6087 403.987 90.7775 404.657C90.9463 405.327 90.9823 406.023 90.8835 406.707C90.7847 407.39 90.553 408.047 90.2016 408.641L90.1147 408.788L78.5703 401.874L81.3326 397.208Z" fill="#2F2E41"/>
<path d="M127.916 398.752H123.279C122.904 398.752 122.541 398.613 122.262 398.361C121.983 398.109 121.807 397.762 121.768 397.388L117.093 353.29C117.081 353.179 117.033 353.075 116.956 352.994C116.88 352.913 116.779 352.86 116.669 352.842C116.559 352.824 116.447 352.843 116.349 352.896C116.251 352.949 116.173 353.033 116.127 353.134L107.693 371.874L92.7617 396.306C92.5685 396.62 92.2693 396.853 91.9189 396.962C91.5685 397.072 91.1904 397.052 90.8538 396.905L84.8888 394.271C84.6915 394.184 84.515 394.056 84.3709 393.895C84.2268 393.734 84.1184 393.545 84.0529 393.339C83.9874 393.133 83.9663 392.915 83.991 392.7C84.0156 392.485 84.0855 392.278 84.196 392.093L97.9222 369.03L102.132 349.598C100.808 341.171 106.484 328.642 106.541 328.516L106.57 328.455L122.204 322.323L122.283 322.419C128.448 342.724 132.206 364.575 129.431 397.354C129.397 397.734 129.223 398.088 128.943 398.347C128.663 398.605 128.297 398.749 127.916 398.752Z" fill="#2F2E41"/>
<path d="M106.34 330.815L106.267 330.661C106.232 330.587 102.745 323.215 100.057 315.335C99.5405 313.811 99.3452 312.196 99.4836 310.593C99.622 308.99 100.091 307.432 100.861 306.02C101.641 304.593 102.708 303.345 103.995 302.353C105.281 301.361 106.759 300.648 108.335 300.259C111.071 299.601 113.951 299.951 116.451 301.244C118.952 302.537 120.905 304.688 121.956 307.304C124.088 312.649 123.409 318.354 122.769 322.841L122.756 322.931L122.675 322.97L106.34 330.815Z" fill="#3F3D56"/>
<path d="M119.538 283.722H106.397V278.02C109.281 276.879 112.104 275.909 113.81 278.02C115.329 278.02 116.786 278.62 117.86 279.69C118.934 280.759 119.538 282.21 119.538 283.722V283.722Z" fill="#2F2E41"/>
<path d="M105.624 276.774C97.7732 276.774 95.5757 286.954 95.5757 292.697C95.5757 295.9 96.9759 297.045 99.1763 297.433L99.9534 293.146L101.773 297.617C102.391 297.621 103.041 297.608 103.714 297.595L104.331 296.281L105.707 297.572C111.219 297.58 115.673 298.411 115.673 292.697C115.673 286.954 113.746 276.774 105.624 276.774Z" fill="#2F2E41"/>
<path d="M143.93 290.67H128.383C127.473 290.669 126.6 290.308 125.956 289.665C125.312 289.021 124.95 288.149 124.949 287.24V271.713C124.95 270.803 125.312 269.931 125.956 269.288C126.6 268.645 127.473 268.283 128.383 268.282H143.93C144.841 268.283 145.714 268.645 146.358 269.288C147.002 269.931 147.364 270.803 147.365 271.713V287.24C147.364 288.149 147.002 289.021 146.358 289.665C145.714 290.308 144.841 290.669 143.93 290.67Z" fill="white"/>
<path d="M143.93 290.67H128.383C127.473 290.669 126.6 290.308 125.956 289.665C125.312 289.021 124.95 288.149 124.949 287.24V271.713C124.95 270.803 125.312 269.931 125.956 269.288C126.6 268.645 127.473 268.283 128.383 268.282H143.93C144.841 268.283 145.714 268.645 146.358 269.288C147.002 269.931 147.364 270.803 147.365 271.713V287.24C147.364 288.149 147.002 289.021 146.358 289.665C145.714 290.308 144.841 290.669 143.93 290.67ZM128.383 269.004C127.665 269.005 126.975 269.291 126.467 269.798C125.959 270.306 125.673 270.995 125.672 271.713V287.24C125.673 287.958 125.959 288.646 126.467 289.154C126.975 289.662 127.665 289.947 128.383 289.948H143.93C144.649 289.947 145.338 289.662 145.847 289.154C146.355 288.646 146.641 287.958 146.642 287.24V271.713C146.641 270.995 146.355 270.306 145.847 269.798C145.338 269.291 144.649 269.005 143.93 269.004H128.383Z" fill="#3F3D56"/>
<path d="M140.863 284.494H130.678C130.388 284.494 130.111 284.376 129.906 284.167C129.702 283.958 129.587 283.675 129.586 283.379V275.573C129.587 275.278 129.702 274.994 129.906 274.785C130.111 274.576 130.388 274.459 130.678 274.458H133.545C133.731 274.458 133.915 274.506 134.078 274.599C134.241 274.692 134.377 274.826 134.474 274.989L135.274 276.317H140.863C141.152 276.317 141.429 276.435 141.634 276.644C141.839 276.853 141.954 277.136 141.954 277.432V283.379C141.954 283.675 141.839 283.958 141.634 284.167C141.429 284.376 141.152 284.494 140.863 284.494Z" fill="#56BAE4"/>
<path d="M140.72 287.977C140.77 288.069 140.817 288.164 140.86 288.262C141.074 288.743 141.183 289.264 141.181 289.79C141.179 290.317 141.065 290.837 140.846 291.316C140.628 291.796 140.311 292.224 139.914 292.573C139.518 292.921 139.053 293.183 138.548 293.34C138.43 293.376 138.311 293.406 138.191 293.43L131.283 311.214C131.055 311.795 130.644 312.287 130.113 312.618C129.581 312.949 128.956 313.1 128.331 313.049L128.296 313.043L113.326 308.557C112.918 308.435 112.54 308.234 112.211 307.965C111.883 307.697 111.611 307.366 111.411 306.992C111.212 306.619 111.089 306.21 111.049 305.788C111.01 305.367 111.054 304.942 111.18 304.538C111.307 304.134 111.512 303.759 111.785 303.434C112.058 303.11 112.392 302.842 112.769 302.647C113.147 302.452 113.559 302.333 113.982 302.298C114.406 302.262 114.832 302.31 115.237 302.44L125.83 305.825L134.031 291.354C133.958 291.204 133.896 291.049 133.846 290.89C133.568 290.005 133.63 289.049 134.021 288.208C134.411 287.367 135.102 286.7 135.958 286.337C136.815 285.974 137.777 285.941 138.657 286.244C139.536 286.547 140.272 287.165 140.72 287.977H140.72Z" fill="#A0616A"/>
<rect width="337.016" height="0.772003" transform="matrix(1 0 0 -1 62.3379 408.788)" fill="#333333"/>
<path fill-rule="evenodd" clip-rule="evenodd" d="M162.438 424.228C251.447 424.228 323.603 352.162 323.603 263.264C323.603 174.366 251.447 102.3 162.438 102.3C73.4289 102.3 1.27297 174.366 1.27297 263.264C1.27297 352.162 73.4289 424.228 162.438 424.228ZM162.438 425C251.874 425 324.376 352.588 324.376 263.264C324.376 173.94 251.874 101.528 162.438 101.528C73.002 101.528 0.5 173.94 0.5 263.264C0.5 352.588 73.002 425 162.438 425Z" fill="#333333"/>
<circle cx="337.5" cy="14" r="1" fill="#4F4F4F"/>
<circle cx="345.5" cy="14" r="1" fill="#4F4F4F"/>
<circle cx="353.5" cy="14" r="1" fill="#4F4F4F"/>
<circle cx="361.5" cy="14" r="1" fill="#4F4F4F"/>
<circle cx="369.5" cy="14" r="1" fill="#4F4F4F"/>
<circle cx="337.5" cy="25" r="1" fill="#4F4F4F"/>
<circle cx="345.5" cy="25" r="1" fill="#4F4F4F"/>
<circle cx="353.5" cy="25" r="1" fill="#4F4F4F"/>
<circle cx="361.5" cy="25" r="1" fill="#4F4F4F"/>
<circle cx="369.5" cy="25" r="1" fill="#4F4F4F"/>
<circle cx="377.5" cy="25" r="1" fill="#4F4F4F"/>
<circle cx="385.5" cy="25" r="1" fill="#4F4F4F"/>
<circle cx="337.5" cy="36" r="1" fill="#4F4F4F"/>
<circle cx="345.5" cy="36" r="1" fill="#4F4F4F"/>
<circle cx="353.5" cy="36" r="1" fill="#4F4F4F"/>
<circle cx="361.5" cy="36" r="1" fill="#4F4F4F"/>
<circle cx="369.5" cy="36" r="1" fill="#4F4F4F"/>
<circle cx="377.5" cy="36" r="1" fill="#4F4F4F"/>
<circle cx="385.5" cy="36" r="1" fill="#4F4F4F"/>
<circle cx="337.5" cy="47" r="1" fill="#4F4F4F"/>
<circle cx="345.5" cy="47" r="1" fill="#4F4F4F"/>
<circle cx="353.5" cy="47" r="1" fill="#4F4F4F"/>
<circle cx="361.5" cy="47" r="1" fill="#4F4F4F"/>
<circle cx="369.5" cy="47" r="1" fill="#4F4F4F"/>
<circle cx="377.5" cy="47" r="1" fill="#4F4F4F"/>
<circle cx="385.5" cy="47" r="1" fill="#4F4F4F"/>
<circle cx="393.5" cy="47" r="1" fill="#4F4F4F"/>
<circle cx="337.5" cy="58" r="1" fill="#4F4F4F"/>
<circle cx="345.5" cy="58" r="1" fill="#4F4F4F"/>
<circle cx="353.5" cy="58" r="1" fill="#4F4F4F"/>
<circle cx="361.5" cy="58" r="1" fill="#4F4F4F"/>
<circle cx="369.5" cy="58" r="1" fill="#4F4F4F"/>
<circle cx="377.5" cy="58" r="1" fill="#4F4F4F"/>
<circle cx="385.5" cy="58" r="1" fill="#4F4F4F"/>
<circle cx="393.5" cy="58" r="1" fill="#4F4F4F"/>
<circle cx="337.5" cy="69" r="1" fill="#4F4F4F"/>
<circle cx="345.5" cy="69" r="1" fill="#4F4F4F"/>
<circle cx="353.5" cy="69" r="1" fill="#4F4F4F"/>
<circle cx="361.5" cy="69" r="1" fill="#4F4F4F"/>
<circle cx="369.5" cy="69" r="1" fill="#4F4F4F"/>
<circle cx="377.5" cy="69" r="1" fill="#4F4F4F"/>
<circle cx="385.5" cy="69" r="1" fill="#4F4F4F"/>
<circle cx="393.5" cy="69" r="1" fill="#4F4F4F"/>
<circle cx="337.5" cy="80" r="1" fill="#4F4F4F"/>
<circle cx="345.5" cy="80" r="1" fill="#4F4F4F"/>
<circle cx="353.5" cy="80" r="1" fill="#4F4F4F"/>
<circle cx="361.5" cy="80" r="1" fill="#4F4F4F"/>
<circle cx="369.5" cy="80" r="1" fill="#4F4F4F"/>
<circle cx="377.5" cy="80" r="1" fill="#4F4F4F"/>
<circle cx="385.5" cy="80" r="1" fill="#4F4F4F"/>
<circle cx="393.5" cy="80" r="1" fill="#4F4F4F"/>
<circle cx="337.5" cy="91" r="1" fill="#4F4F4F"/>
<circle cx="345.5" cy="91" r="1" fill="#4F4F4F"/>
<circle cx="353.5" cy="91" r="1" fill="#4F4F4F"/>
<circle cx="361.5" cy="91" r="1" fill="#4F4F4F"/>
<circle cx="369.5" cy="91" r="1" fill="#4F4F4F"/>
<circle cx="377.5" cy="91" r="1" fill="#4F4F4F"/>
<circle cx="385.5" cy="91" r="1" fill="#4F4F4F"/>
<circle cx="393.5" cy="91" r="1" fill="#4F4F4F"/>
</svg>
